<svg xmlns="http://www.w3.org/2000/svg" width="35.975" height="35.975" viewBox="0 0 35.975 35.975">
    <g id="language" transform="translate(-2 -2)">
        <path id="Path_514" data-name="Path 514" d="M19.969,2A17.987,17.987,0,1,0,37.975,19.987,17.979,17.979,0,0,0,19.969,2ZM32.435,12.792H27.128a28.15,28.15,0,0,0-2.482-6.4,14.444,14.444,0,0,1,7.789,6.4ZM19.987,5.669a25.338,25.338,0,0,1,3.436,7.123H16.552A25.338,25.338,0,0,1,19.987,5.669ZM6.065,23.585a14.07,14.07,0,0,1,0-7.195h6.08a29.706,29.706,0,0,0-.252,3.6,29.706,29.706,0,0,0,.252,3.6Zm1.475,3.6h5.306a28.148,28.148,0,0,0,2.482,6.4,14.366,14.366,0,0,1-7.789-6.4Zm5.306-14.39H7.54a14.366,14.366,0,0,1,7.789-6.4,28.15,28.15,0,0,0-2.482,6.4Zm7.141,21.513a25.338,25.338,0,0,1-3.436-7.123h6.871A25.338,25.338,0,0,1,19.987,34.305ZM24.2,23.585H15.778a26.464,26.464,0,0,1-.288-3.6,26.234,26.234,0,0,1,.288-3.6H24.2a26.234,26.234,0,0,1,.288,3.6A26.464,26.464,0,0,1,24.2,23.585Zm.45,10a28.149,28.149,0,0,0,2.482-6.4h5.306a14.444,14.444,0,0,1-7.789,6.4Zm3.184-10a29.707,29.707,0,0,0,.252-3.6,29.707,29.707,0,0,0-.252-3.6h6.08a14.07,14.07,0,0,1,0,7.195Z" fill="#fff"/>
    </g>
</svg>