<svg xmlns="http://www.w3.org/2000/svg" width="53.612" height="67.015" viewBox="0 0 53.612 67.015">
    <g id="Group_228" data-name="Group 228" transform="translate(-4 -2)">
        <path id="Path_523" data-name="Path 523" d="M13.7,18.754A9.873,9.873,0,0,1,23.754,8.7,9.873,9.873,0,0,1,33.806,18.754v6.7h6.7v-6.7A16.591,16.591,0,0,0,23.754,2,16.591,16.591,0,0,0,7,18.754v6.7h6.7Z" transform="translate(7.052)" fill="#fff"/>
        <path id="Path_524" data-name="Path 524" d="M20.552,18.026A5.153,5.153,0,0,0,15.526,13,5.153,5.153,0,0,0,10.5,18.026a5.381,5.381,0,0,0,1.675,3.686V26.4h0a3.166,3.166,0,0,0,3.351,3.351h0A3.166,3.166,0,0,0,18.877,26.4V21.712A5.381,5.381,0,0,0,20.552,18.026Z" transform="translate(15.28 25.858)" fill="#565196"/>
        <path id="Path_525" data-name="Path 525" d="M47.56,9H14.052A9.873,9.873,0,0,0,4,19.052V42.507A9.873,9.873,0,0,0,14.052,52.56H47.56A9.873,9.873,0,0,0,57.612,42.507V19.052A9.873,9.873,0,0,0,47.56,9Zm-13.4,22.115v4.691a3.166,3.166,0,0,1-3.351,3.351h0a3.166,3.166,0,0,1-3.351-3.351h0V31.115a5.381,5.381,0,0,1-1.675-3.686,5.026,5.026,0,0,1,10.052,0A5.381,5.381,0,0,1,34.157,31.115Z" transform="translate(0 16.455)" fill="#ec6418"/>
    </g>
</svg>