<svg xmlns="http://www.w3.org/2000/svg" xmlns:xlink="http://www.w3.org/1999/xlink" width="1818.715" height="566.047" viewBox="0 0 1818.715 566.047">
    <defs>
        <radialGradient id="radial-gradient" cx="0.5" cy="0.5" r="0.5" gradientTransform="translate(0)" gradientUnits="objectBoundingBox">
            <stop offset="0.059" stop-color="#e47e99"/>
            <stop offset="0.526" stop-color="#e43d99"/>
            <stop offset="0.993" stop-color="#b30058"/>
        </radialGradient>
        <radialGradient id="radial-gradient-2" cx="0.5" cy="0.5" r="0.5" xlink:href="#radial-gradient"/>
        <radialGradient id="radial-gradient-3" cx="0.5" cy="0.5" r="0.5" xlink:href="#radial-gradient"/>
        <radialGradient id="radial-gradient-4" cx="0.5" cy="0.5" r="0.5" xlink:href="#radial-gradient"/>
        <radialGradient id="radial-gradient-5" cx="0.5" cy="0.5" r="0.5" xlink:href="#radial-gradient"/>
        <radialGradient id="radial-gradient-7" cx="6.109" cy="-35.861" r="39.272" gradientTransform="translate(-270.037 171.366) rotate(180)" gradientUnits="objectBoundingBox">
            <stop offset="0.059" stop-color="#0a1656"/>
            <stop offset="0.889" stop-color="#4478ad"/>
        </radialGradient>
        <radialGradient id="radial-gradient-8" cx="19.92" cy="-26.253" r="39.272" gradientTransform="translate(-242.419 190.581) rotate(180)" xlink:href="#radial-gradient-7"/>
        <radialGradient id="radial-gradient-9" cx="13.038" cy="-19.424" r="39.272" gradientTransform="translate(-256.178 204.241) rotate(180)" xlink:href="#radial-gradient-7"/>
        <radialGradient id="radial-gradient-10" cx="-12.366" cy="-26.748" r="39.272" gradientTransform="translate(-306.991 189.591) rotate(180)" xlink:href="#radial-gradient-7"/>
        <radialGradient id="radial-gradient-11" cx="0.5" cy="0.5" r="0.565" gradientTransform="translate(-45.335 31.127) rotate(180) scale(0.803 1)" xlink:href="#radial-gradient-7"/>
        <radialGradient id="radial-gradient-12" cx="0.5" cy="0.5" r="0.538" gradientTransform="translate(-30.505 21.221) rotate(180) scale(0.872 1)" xlink:href="#radial-gradient-7"/>
        <radialGradient id="radial-gradient-13" cx="-27.095" cy="21.312" r="41.06" gradientTransform="matrix(0.956, 0.292, -0.292, 0.956, 31.387, -8.213)" xlink:href="#radial-gradient-7"/>
        <radialGradient id="radial-gradient-14" cx="-18.132" cy="16.588" r="41.06" gradientTransform="matrix(0.957, 0.292, -0.292, 0.956, 30.392, -11.046)" xlink:href="#radial-gradient-7"/>
        <radialGradient id="radial-gradient-15" cx="0.5" cy="0.5" r="0.5" xlink:href="#radial-gradient"/>
        <radialGradient id="radial-gradient-16" cx="0.5" cy="0.5" r="0.5" xlink:href="#radial-gradient"/>
        <radialGradient id="radial-gradient-17" cx="-32.663" cy="0.849" r="43.212" gradientTransform="matrix(-0.418, 0.909, -0.909, -0.417, 91.685, 65.421)" xlink:href="#radial-gradient-7"/>
        <radialGradient id="radial-gradient-18" cx="0.573" cy="0.485" r="0.424" gradientTransform="matrix(0.187, -0.991, 1.388, 0.133, -30.499, 10.462)" xlink:href="#radial-gradient-7"/>
        <radialGradient id="radial-gradient-19" cx="-2.543" cy="-31.39" r="41.751" gradientTransform="matrix(-0.941, -0.339, 0.339, -0.941, -0.379, 205.468)" xlink:href="#radial-gradient-7"/>
        <radialGradient id="radial-gradient-20" cx="-31.858" cy="-17.542" r="48.284" gradientTransform="matrix(-0.813, 0.582, -0.582, -0.813, -242.057, 76.24)" xlink:href="#radial-gradient-7"/>
        <radialGradient id="radial-gradient-21" cx="0.696" cy="0.436" r="0.412" gradientTransform="matrix(0.841, -0.794, 1.099, 0.608, -24.81, 15.42)" xlink:href="#radial-gradient-7"/>
        <radialGradient id="radial-gradient-23" cx="0.5" cy="0.5" r="0.656" gradientTransform="translate(-8.226 49.961) rotate(180) scale(0.639 1)" xlink:href="#radial-gradient-7"/>
        <linearGradient id="linear-gradient" x1="-5.127" y1="2.254" x2="-4.496" y2="2.723" gradientUnits="objectBoundingBox">
            <stop offset="0" stop-color="#fff" stop-opacity="0"/>
            <stop offset="1" stop-color="#fff" stop-opacity="0.8"/>
        </linearGradient>
        <linearGradient id="linear-gradient-2" x1="0" y1="0.5" x2="1" y2="0.5" xlink:href="#linear-gradient"/>
        <radialGradient id="radial-gradient-24" cx="0.496" cy="0.497" r="0.506" gradientTransform="translate(0.127 -0.1) rotate(13.184)" gradientUnits="objectBoundingBox">
            <stop offset="0.059" stop-color="#fce085"/>
            <stop offset="0.411" stop-color="#fbdf85" stop-opacity="0.992"/>
            <stop offset="0.537" stop-color="#fbdc89" stop-opacity="0.965"/>
            <stop offset="0.627" stop-color="#fad88e" stop-opacity="0.918"/>
            <stop offset="0.7" stop-color="#f9d296" stop-opacity="0.851"/>
            <stop offset="0.763" stop-color="#f7cba1" stop-opacity="0.765"/>
            <stop offset="0.818" stop-color="#f5c1ae" stop-opacity="0.655"/>
            <stop offset="0.868" stop-color="#f3b6bd" stop-opacity="0.529"/>
            <stop offset="0.915" stop-color="#f0a9cf" stop-opacity="0.376"/>
            <stop offset="0.957" stop-color="#ec9ae4" stop-opacity="0.208"/>
            <stop offset="0.995" stop-color="#e98af9" stop-opacity="0.024"/>
            <stop offset="1" stop-color="#e988fd" stop-opacity="0"/>
        </radialGradient>
        <radialGradient id="radial-gradient-25" cx="0.673" cy="0.095" r="0.984" gradientTransform="matrix(0.956, 0.292, -0.292, 0.956, 0.042, -0.157)" gradientUnits="objectBoundingBox">
            <stop offset="0.059" stop-color="#fce085"/>
            <stop offset="0.963" stop-color="#e988fd"/>
        </radialGradient>
        <radialGradient id="radial-gradient-26" cx="0.187" cy="-1.26" r="2.81" gradientTransform="matrix(0.591, 0.261, -0.14, 0.847, 0.635, 2.276)" xlink:href="#radial-gradient-25"/>
        <radialGradient id="radial-gradient-27" cx="2.943" cy="-0.16" r="1.306" gradientTransform="translate(-1.122) scale(3.245 1)" xlink:href="#radial-gradient-25"/>
        <radialGradient id="radial-gradient-28" cx="0.593" cy="0.199" r="3.375" gradientTransform="translate(0.311) scale(0.379 1)" xlink:href="#radial-gradient-25"/>
        <radialGradient id="radial-gradient-29" cx="-2.345" cy="-0.321" r="4.661" gradientTransform="translate(-0.248) scale(1.496 1)" xlink:href="#radial-gradient-25"/>
        <radialGradient id="radial-gradient-30" cx="-7.733" cy="-1.681" r="6.44" gradientTransform="translate(-0.682) scale(2.364 1)" xlink:href="#radial-gradient-25"/>
        <radialGradient id="radial-gradient-31" cx="0.548" cy="0.062" r="1.016" gradientTransform="translate(0.068) scale(0.864 1)" xlink:href="#radial-gradient-25"/>
        <radialGradient id="radial-gradient-32" cx="0.548" cy="0.062" r="1.155" gradientTransform="translate(0.211) scale(0.578 1)" xlink:href="#radial-gradient-25"/>
        <radialGradient id="radial-gradient-33" cx="0.214" cy="-0.465" r="1.964" gradientTransform="translate(0.262) scale(0.475 1)" xlink:href="#radial-gradient-25"/>
        <radialGradient id="radial-gradient-34" cx="0.182" cy="-1.268" r="3.04" gradientTransform="translate(0.336) scale(0.329 1)" xlink:href="#radial-gradient-25"/>
        <radialGradient id="radial-gradient-35" cx="1.501" cy="0.306" r="0.947" gradientTransform="matrix(-0.38, 0.981, -1.912, -0.195, -164.641, 140.03)" xlink:href="#radial-gradient-25"/>
        <radialGradient id="radial-gradient-36" cx="2.257" cy="0.298" r="1.014" gradientTransform="matrix(-0.534, 0.981, -2.688, -0.195, -278.276, 205.901)" xlink:href="#radial-gradient-25"/>
        <radialGradient id="radial-gradient-37" cx="0.815" cy="1.42" r="1.951" gradientTransform="matrix(-0.478, 0.062, -0.03, -0.998, -80.161, 297.029)" xlink:href="#radial-gradient-25"/>
        <radialGradient id="radial-gradient-38" cx="0.855" cy="2.178" r="2.992" gradientTransform="matrix(-0.335, 0.062, -0.021, -0.998, -77.31, 453.952)" xlink:href="#radial-gradient-25"/>
        <radialGradient id="radial-gradient-39" cx="0.277" cy="1.433" r="1.046" gradientTransform="matrix(-0.778, -0.556, 0.92, -1.47, -101.956, 137.331)" xlink:href="#radial-gradient-25"/>
        <radialGradient id="radial-gradient-40" cx="0.214" cy="-0.465" r="1.522" gradientTransform="translate(0.056) scale(0.888 1)" xlink:href="#radial-gradient-25"/>
        <radialGradient id="radial-gradient-41" cx="0.41" cy="-0.507" r="1.098" gradientTransform="matrix(0.833, 0.233, -0.353, 1.719, 15.418, -31.48)" xlink:href="#radial-gradient-25"/>
        <radialGradient id="radial-gradient-42" cx="1.018" cy="1.362" r="1.652" gradientTransform="matrix(-0.702, 0.347, -0.26, -0.938, -125.457, 173.652)" xlink:href="#radial-gradient-25"/>
        <radialGradient id="radial-gradient-43" cx="1.281" cy="0.994" r="1.029" gradientTransform="matrix(-0.749, 0.631, -1.078, -1.371, -58.238, 192.888)" xlink:href="#radial-gradient-25"/>
        <radialGradient id="radial-gradient-44" cx="-0.43" cy="0.523" r="1.479" gradientTransform="matrix(0.276, -0.956, 0.898, 0.294, -25.889, 51.07)" xlink:href="#radial-gradient-25"/>
        <radialGradient id="radial-gradient-45" cx="-0.265" cy="0.453" r="1.092" gradientTransform="matrix(0.717, -0.807, 0.979, 0.591, -71.954, 76.296)" xlink:href="#radial-gradient-25"/>
        <radialGradient id="radial-gradient-46" cx="-0.604" cy="0.395" r="1.213" gradientTransform="matrix(0.818, -0.807, 1.117, 0.591, -97.551, 90.812)" xlink:href="#radial-gradient-25"/>
        <radialGradient id="radial-gradient-47" cx="0.117" cy="1.036" r="1.043" gradientTransform="matrix(-0.697, -0.862, 1.183, -0.508, -126.35, 152.551)" xlink:href="#radial-gradient-25"/>
        <radialGradient id="radial-gradient-48" cx="-0.112" cy="1.173" r="1.181" gradientTransform="matrix(-0.774, -0.862, 1.314, -0.508, -159.731, 172.273)" xlink:href="#radial-gradient-25"/>
        <radialGradient id="radial-gradient-49" cx="0.479" cy="-0.335" r="1.442" gradientTransform="matrix(0.624, 0.499, -0.359, 0.867, -26.449, 13.698)" xlink:href="#radial-gradient-25"/>
        <radialGradient id="radial-gradient-50" cx="0.516" cy="-0.762" r="1.904" gradientTransform="matrix(0.517, 0.499, -0.298, 0.867, -33.317, 13.861)" xlink:href="#radial-gradient-25"/>
        <radialGradient id="radial-gradient-51" cx="0.898" cy="1.22" r="1.791" gradientTransform="matrix(-0.518, 0.243, -0.13, -0.97, -140.933, 480.771)" xlink:href="#radial-gradient-25"/>
        <radialGradient id="radial-gradient-52" cx="0.968" cy="1.75" r="2.568" gradientTransform="matrix(-0.392, 0.243, -0.098, -0.97, -137.916, 679.882)" xlink:href="#radial-gradient-25"/>
        <radialGradient id="radial-gradient-53" cx="-0.431" cy="0.809" r="0.934" gradientTransform="matrix(-0.104, -0.999, 2.091, -0.049, -343.951, 117.028)" xlink:href="#radial-gradient-25"/>
        <radialGradient id="radial-gradient-54" cx="-1.2" cy="0.848" r="1.003" gradientTransform="matrix(-0.148, -0.999, 2.996, -0.049, -532.031, 108.475)" xlink:href="#radial-gradient-25"/>
        <radialGradient id="radial-gradient-55" cx="0.678" cy="1.493" r="1.81" gradientTransform="matrix(-0.512, -0.227, 0.12, -0.974, -251.102, 582.155)" xlink:href="#radial-gradient-25"/>
        <radialGradient id="radial-gradient-56" cx="0.681" cy="2.219" r="2.691" gradientTransform="matrix(-0.369, -0.227, 0.086, -0.974, -247.276, 878.891)" xlink:href="#radial-gradient-25"/>
        <radialGradient id="radial-gradient-57" cx="1.073" cy="0.046" r="0.983" gradientTransform="matrix(0.595, 0.934, -1.558, 0.357, -109.063, 153.261)" xlink:href="#radial-gradient-25"/>
        <radialGradient id="radial-gradient-58" cx="1.455" cy="-0.046" r="1.083" gradientTransform="matrix(0.732, 0.934, -1.917, 0.357, -114.592, 211.485)" xlink:href="#radial-gradient-25"/>
        <radialGradient id="radial-gradient-59" cx="1.229" cy="0.587" r="1.127" gradientTransform="matrix(-0.718, 0.771, -0.868, -0.637, -263.22, 307.078)" xlink:href="#radial-gradient-25"/>
        <radialGradient id="radial-gradient-60" cx="1.527" cy="0.659" r="1.267" gradientTransform="matrix(-0.794, 0.771, -0.96, -0.637, -345.969, 363.505)" xlink:href="#radial-gradient-25"/>
        <radialGradient id="radial-gradient-61" cx="-0.134" cy="0.931" r="0.97" gradientTransform="matrix(-0.544, -0.951, 1.669, -0.31, -325.203, 595.943)" xlink:href="#radial-gradient-25"/>
        <radialGradient id="radial-gradient-62" cx="-0.573" cy="1.013" r="1.062" gradientTransform="matrix(-0.689, -0.951, 2.115, -0.31, -420.133, 695.994)" xlink:href="#radial-gradient-25"/>
        <radialGradient id="radial-gradient-63" cx="-0.208" cy="-0.082" r="1.06" gradientTransform="matrix(0.776, -0.544, 0.875, 1.457, -127.252, 21.125)" xlink:href="#radial-gradient-25"/>
        <radialGradient id="radial-gradient-64" cx="-0.485" cy="-0.472" r="1.442" gradientTransform="matrix(0.702, -0.544, 0.791, 1.457, -137.42, 14.165)" xlink:href="#radial-gradient-25"/>
        <radialGradient id="radial-gradient-65" cx="0.398" cy="-0.424" r="1.621" gradientTransform="matrix(0.566, 0.369, -0.225, 0.929, 78.974, -31.319)" xlink:href="#radial-gradient-25"/>
        <radialGradient id="radial-gradient-66" cx="0.414" cy="-0.994" r="2.27" gradientTransform="matrix(0.436, 0.369, -0.173, 0.929, 100.637, -30.67)" xlink:href="#radial-gradient-25"/>
        <radialGradient id="radial-gradient-67" cx="1.504" cy="0.44" r="0.949" gradientTransform="matrix(-0.353, 0.958, -1.933, -0.469, 270.274, 434.969)" xlink:href="#radial-gradient-25"/>
        <radialGradient id="radial-gradient-68" cx="2.272" cy="0.467" r="1.029" gradientTransform="matrix(-0.491, 0.958, -2.692, -0.469, 384.184, 519.028)" xlink:href="#radial-gradient-25"/>
        <radialGradient id="radial-gradient-69" cx="-0.109" cy="0.251" r="1.286" gradientTransform="matrix(0.679, -0.623, 0.54, 0.782, -44.249, 30.008)" xlink:href="#radial-gradient-25"/>
        <radialGradient id="radial-gradient-70" cx="-0.299" cy="0.106" r="1.536" gradientTransform="matrix(0.665, -0.623, 0.53, 0.782, -51.509, 35.456)" xlink:href="#radial-gradient-25"/>
        <radialGradient id="radial-gradient-71" cx="-1.782" cy="-4.081" r="8.292" gradientTransform="matrix(0.664, -0.495, 0.314, 0.722, -6.796, 69.093)" xlink:href="#radial-gradient-25"/>
        <radialGradient id="radial-gradient-72" cx="-4.431" cy="-4.943" r="13.633" gradientTransform="matrix(0.664, -0.495, 0.315, 0.722, -12.297, 113.38)" xlink:href="#radial-gradient-25"/>
        <radialGradient id="radial-gradient-73" cx="5.375" cy="-1.563" r="6.229" gradientTransform="matrix(0.617, 0.893, -1.019, 0.374, -302.051, 223.837)" xlink:href="#radial-gradient-25"/>
        <radialGradient id="radial-gradient-74" cx="5.376" cy="-1.563" r="6.23" gradientTransform="matrix(0.617, 0.893, -1.019, 0.374, -498.122, 370.38)" xlink:href="#radial-gradient-25"/>
        <radialGradient id="radial-gradient-75" cx="7.025" cy="-0.183" r="5.815" gradientTransform="matrix(0.206, 0.993, -1.427, 0.099, -1235.304, 932.292)" xlink:href="#radial-gradient-25"/>
        <radialGradient id="radial-gradient-76" cx="7.027" cy="-0.183" r="5.814" gradientTransform="matrix(0.206, 0.993, -1.428, 0.099, -910.041, 656.879)" xlink:href="#radial-gradient-25"/>
        <radialGradient id="radial-gradient-77" cx="7.03" cy="-0.183" r="5.813" gradientTransform="matrix(0.206, 0.993, -1.429, 0.099, -1386.445, 1001.588)" xlink:href="#radial-gradient-25"/>
        <radialGradient id="radial-gradient-78" cx="3.056" cy="-3.584" r="7.571" gradientTransform="matrix(0.697, 0.623, -0.461, 0.65, -157.442, 36.568)" xlink:href="#radial-gradient-25"/>
        <radialGradient id="radial-gradient-79" cx="2.661" cy="-6.808" r="12.44" gradientTransform="matrix(0.697, 0.623, -0.461, 0.65, -259.889, 61.35)" xlink:href="#radial-gradient-25"/>
        <radialGradient id="radial-gradient-80" cx="2.662" cy="-6.81" r="12.444" gradientTransform="matrix(0.697, 0.623, -0.461, 0.65, -258.888, 62.83)" xlink:href="#radial-gradient-25"/>
        <radialGradient id="radial-gradient-81" cx="0.313" cy="-1.295" r="5.119" gradientTransform="translate(0.348) scale(0.305 1)" xlink:href="#radial-gradient-25"/>
        <radialGradient id="radial-gradient-82" cx="0.5" cy="0.5" r="0.5" xlink:href="#radial-gradient"/>
        <radialGradient id="radial-gradient-83" cx="14.213" cy="-8.303" r="39.092" gradientTransform="translate(-252.538 225.367) rotate(180)" xlink:href="#radial-gradient-7"/>
        <radialGradient id="radial-gradient-84" cx="-16.228" cy="35.15" r="41.071" gradientTransform="matrix(0.956, 0.292, -0.292, 0.956, 35.915, -10.791)" xlink:href="#radial-gradient-7"/>
        <radialGradient id="radial-gradient-85" cx="0.5" cy="0.5" r="0.814" gradientTransform="matrix(0.483, 0.049, -0.024, 0.999, 4.328, -0.344)" xlink:href="#radial-gradient-7"/>
    </defs>
    <path id="Path_15" data-name="Path 15" d="M719.507,61.116s-1.8-4.16-2.849-5.21-5.21-2.849-5.21-2.849,4.16-1.8,5.21-2.849S719.507,45,719.507,45s1.8,4.16,2.849,5.21,5.21,2.849,5.21,2.849-4.16,1.8-5.21,2.849S719.507,61.116,719.507,61.116Z" transform="translate(772.304 71.765)" opacity="0.32" fill="url(#radial-gradient)" style="mix-blend-mode: screen;isolation: isolate"/>
    <path id="Path_16" data-name="Path 16" d="M709.734,143.579s-1.8-4.158-2.849-5.208-5.208-2.849-5.208-2.849,4.158-1.8,5.208-2.852,2.849-5.208,2.849-5.208,1.8,4.16,2.852,5.208,5.208,2.852,5.208,2.852-4.16,1.8-5.208,2.849S709.734,143.579,709.734,143.579Z" transform="translate(759.679 178.332)" opacity="0.32" fill="url(#radial-gradient-2)" style="mix-blend-mode: screen;isolation: isolate"/>
    <path id="Path_17" data-name="Path 17" d="M603.445,73.753s-1.8-4.16-2.849-5.21-5.21-2.849-5.21-2.849,4.16-1.8,5.21-2.849,2.849-5.21,2.849-5.21,1.8,4.16,2.849,5.21,5.21,2.849,5.21,2.849-4.161,1.8-5.21,2.849S603.445,73.753,603.445,73.753Z" transform="translate(622.321 88.096)" opacity="0.32" fill="url(#radial-gradient-3)" style="mix-blend-mode: screen;isolation: isolate"/>
    <path id="Path_18" data-name="Path 18" d="M598.254,119.157s-3-6.936-4.749-8.685-8.686-4.75-8.686-4.75,6.934-3,8.686-4.75,4.749-8.685,4.749-8.685,3,6.936,4.75,8.685,8.683,4.75,8.683,4.75-6.934,3-8.683,4.75S598.254,119.157,598.254,119.157Z" transform="translate(608.667 132.876)" opacity="0.32" fill="url(#radial-gradient-4)" style="mix-blend-mode: screen;isolation: isolate"/>
    <path id="Path_20" data-name="Path 20" d="M744.033,126.192s-3-6.936-4.75-8.685-8.685-4.75-8.685-4.75,6.934-3,8.685-4.75,4.75-8.685,4.75-8.685,3,6.934,4.749,8.685,8.686,4.75,8.686,4.75-6.936,3-8.686,4.75S744.033,126.192,744.033,126.192Z" transform="translate(797.052 141.968)" fill="url(#radial-gradient-5)" style="mix-blend-mode: screen;isolation: isolate"/>
    <path id="Path_508" data-name="Path 508" d="M744.033,126.192s-3-6.936-4.75-8.685-8.685-4.75-8.685-4.75,6.934-3,8.685-4.75,4.75-8.685,4.75-8.685,3,6.934,4.749,8.685,8.686,4.75,8.686,4.75-6.936,3-8.686,4.75S744.033,126.192,744.033,126.192Z" transform="translate(978.389 73.946)" fill="url(#radial-gradient-5)" style="mix-blend-mode: screen;isolation: isolate"/>
    <path id="Path_22" data-name="Path 22" d="M638.7,146.242a15.163,15.163,0,0,1-1.584,2.9,15.191,15.191,0,0,1-2.893,1.582,15.189,15.189,0,0,1,2.893,1.582,15.161,15.161,0,0,1,1.584,2.893,15.266,15.266,0,0,1,1.582-2.893,15.189,15.189,0,0,1,2.893-1.582,15.191,15.191,0,0,1-2.893-1.582A15.269,15.269,0,0,1,638.7,146.242Z" transform="translate(672.513 202.601)" opacity="0.5" fill="url(#radial-gradient-7)" style="mix-blend-mode: screen;isolation: isolate"/>
    <path id="Path_23" data-name="Path 23" d="M584.765,108.723a15.189,15.189,0,0,1-1.582,2.893,15.187,15.187,0,0,1-2.893,1.582,15.1,15.1,0,0,1,2.893,1.584,15.19,15.19,0,0,1,1.582,2.893,15.1,15.1,0,0,1,1.584-2.893,15.1,15.1,0,0,1,2.893-1.584,15.185,15.185,0,0,1-2.893-1.582A15.1,15.1,0,0,1,584.765,108.723Z" transform="translate(602.815 154.116)" opacity="0.5" fill="url(#radial-gradient-8)" style="mix-blend-mode: screen;isolation: isolate"/>
    <path id="Path_24" data-name="Path 24" d="M611.642,82.053a15.268,15.268,0,0,1-1.582,2.9,15.19,15.19,0,0,1-2.893,1.582,15.191,15.191,0,0,1,2.893,1.582A15.266,15.266,0,0,1,611.642,91a15.254,15.254,0,0,1,1.582-2.893,15.263,15.263,0,0,1,2.9-1.582,15.262,15.262,0,0,1-2.9-1.582A15.256,15.256,0,0,1,611.642,82.053Z" transform="translate(637.546 119.651)" opacity="0.5" fill="url(#radial-gradient-9)" style="mix-blend-mode: screen;isolation: isolate"/>
    <path id="Path_26" data-name="Path 26" d="M710.841,110.656a15.185,15.185,0,0,1-1.582,2.893,15.163,15.163,0,0,1-2.893,1.584,15.255,15.255,0,0,1,2.893,1.582,15.186,15.186,0,0,1,1.582,2.893,15.2,15.2,0,0,1,1.582-2.893,15.262,15.262,0,0,1,2.9-1.582,15.17,15.17,0,0,1-2.9-1.584A15.2,15.2,0,0,1,710.841,110.656Z" transform="translate(765.739 156.614)" opacity="0.5" fill="url(#radial-gradient-10)" style="mix-blend-mode: screen;isolation: isolate"/>
    <path id="Path_27" data-name="Path 27" d="M733.432,93.74a1.5,1.5,0,1,1,1.495,1.495A1.5,1.5,0,0,1,733.432,93.74Zm-11.968,27.425a2.991,2.991,0,1,0-2.991-2.991A2.991,2.991,0,0,0,721.464,121.165Zm-5.983-35.9A5.984,5.984,0,1,0,709.5,79.28,5.984,5.984,0,0,0,715.481,85.263Zm51.856-6.982a2.991,2.991,0,1,0-2.991-2.991A2.992,2.992,0,0,0,767.337,78.281Z" transform="translate(769.783 107.045)" fill="url(#radial-gradient-11)" style="mix-blend-mode: screen;isolation: isolate"/>
    <path id="Path_28" data-name="Path 28" d="M625.488,144.386a1.5,1.5,0,1,1-1.616-1.364A1.5,1.5,0,0,1,625.488,144.386Zm9.6-28.342a2.992,2.992,0,1,0,3.234,2.728A2.995,2.995,0,0,0,635.086,116.044Zm9.009,35.264a5.984,5.984,0,1,0,6.469,5.456A5.986,5.986,0,0,0,644.095,151.308Zm-51.079,11.356a2.992,2.992,0,1,0,3.234,2.728A2.993,2.993,0,0,0,593.016,162.664Z" transform="translate(615.72 163.563)" fill="url(#radial-gradient-12)" style="mix-blend-mode: screen;isolation: isolate"/>
    <path id="Path_34" data-name="Path 34" d="M470.449,101.391a15.18,15.18,0,0,1,2.361-2.306,15.143,15.143,0,0,1,3.23-.667,15.14,15.14,0,0,1-2.306-2.359,15.316,15.316,0,0,1-.667-3.23,15.149,15.149,0,0,1-2.359,2.3,15.142,15.142,0,0,1-3.23.667,15.081,15.081,0,0,1,2.3,2.361A15.145,15.145,0,0,1,470.449,101.391Z" transform="translate(457.031 133.577)" opacity="0.5" fill="url(#radial-gradient-13)" style="mix-blend-mode: screen;isolation: isolate"/>
    <path id="Path_35" data-name="Path 35" d="M436.95,119.036a15.151,15.151,0,0,1,2.359-2.3,15.172,15.172,0,0,1,3.23-.667,15.19,15.19,0,0,1-2.3-2.361,15.146,15.146,0,0,1-.667-3.23,15.245,15.245,0,0,1-2.359,2.306,15.171,15.171,0,0,1-3.23.667,15.148,15.148,0,0,1,2.3,2.359A15.174,15.174,0,0,1,436.95,119.036Z" transform="translate(413.742 156.379)" opacity="0.5" fill="url(#radial-gradient-14)" style="mix-blend-mode: screen;isolation: isolate"/>
    <path id="Path_36" data-name="Path 36" d="M498,52.984s-4.532-.1-5.923.415-4.763,3.546-4.763,3.546.1-4.532-.415-5.923-3.546-4.766-3.546-4.766,4.532.1,5.923-.415,4.763-3.544,4.763-3.544-.1,4.532.415,5.923S498,52.984,498,52.984Z" transform="translate(477.542 68.276)" opacity="0.32" fill="url(#radial-gradient-15)" style="mix-blend-mode: screen;isolation: isolate"/>
    <path id="Path_37" data-name="Path 37" d="M566.106,62.1s-7.555-.167-9.875.692-7.94,5.909-7.94,5.909.167-7.553-.692-9.873-5.909-7.943-5.909-7.943,7.553.17,9.875-.692,7.941-5.909,7.941-5.909-.167,7.555.692,9.875S566.106,62.1,566.106,62.1Z" transform="translate(552.932 70.842)" opacity="0.32" fill="url(#radial-gradient-16)" style="mix-blend-mode: screen;isolation: isolate"/>
    <path id="Path_38" data-name="Path 38" d="M540.245,78.7a15.217,15.217,0,0,1,1.967,2.645,15.215,15.215,0,0,1,.231,3.292,15.207,15.207,0,0,1,2.645-1.969,15.192,15.192,0,0,1,3.289-.232,15.205,15.205,0,0,1-1.969-2.645,15.158,15.158,0,0,1-.229-3.289,15.2,15.2,0,0,1-2.645,1.969A15.162,15.162,0,0,1,540.245,78.7Z" transform="translate(551.065 112.483)" opacity="0.5" fill="url(#radial-gradient-17)" style="mix-blend-mode: screen;isolation: isolate"/>
    <path id="Path_39" data-name="Path 39" d="M533.742,78.2a1.5,1.5,0,1,1,1.983-.736A1.5,1.5,0,0,1,533.742,78.2Zm19.927,22.322a2.992,2.992,0,1,0-3.966,1.469A2.992,2.992,0,0,0,553.668,100.523Zm-35.122-9.547a5.983,5.983,0,1,0-7.934,2.941A5.984,5.984,0,0,0,518.546,90.975Zm15.3-50.038a2.993,2.993,0,1,0-3.968,1.469A2.995,2.995,0,0,0,533.847,40.937Z" transform="translate(508.265 61.037)" fill="url(#radial-gradient-18)" style="mix-blend-mode: screen;isolation: isolate"/>
    <path id="Path_40" data-name="Path 40" d="M376.243,93.383a19.152,19.152,0,0,1-3.117,2.755,19.167,19.167,0,0,1-4.11.642,19.1,19.1,0,0,1,2.758,3.115,19.151,19.151,0,0,1,.64,4.11,19.213,19.213,0,0,1,3.115-2.755,19.2,19.2,0,0,1,4.112-.642,19.1,19.1,0,0,1-2.758-3.115A19.148,19.148,0,0,1,376.243,93.383Z" transform="translate(329.791 134.293)" opacity="0.5" fill="url(#radial-gradient-19)" style="mix-blend-mode: screen;isolation: isolate"/>
    <path id="Path_44" data-name="Path 44" d="M652.146,106.018a19.045,19.045,0,0,1,.5,4.131,19.182,19.182,0,0,1-1.806,3.748,19.166,19.166,0,0,1,4.131-.5,19.283,19.283,0,0,1,3.748,1.809,19.159,19.159,0,0,1-.5-4.131,19.214,19.214,0,0,1,1.809-3.748,19.052,19.052,0,0,1-4.131.5A19.11,19.11,0,0,1,652.146,106.018Z" transform="translate(693.982 150.621)" opacity="0.5" fill="url(#radial-gradient-20)" style="mix-blend-mode: screen;isolation: isolate"/>
    <path id="Path_45" data-name="Path 45" d="M662.662,94.561A1.887,1.887,0,1,1,665.3,95,1.889,1.889,0,0,1,662.662,94.561Zm7.853,36.924a3.775,3.775,0,1,0-5.265-.873A3.775,3.775,0,0,0,670.516,131.485ZM638.023,99.04a7.549,7.549,0,1,0-10.533-1.747A7.549,7.549,0,0,0,638.023,99.04Zm48.083-45.229a3.774,3.774,0,1,0-5.266-.873A3.773,3.773,0,0,0,686.105,53.811Z" transform="translate(661.987 74.311)" fill="url(#radial-gradient-21)" style="mix-blend-mode: screen;isolation: isolate"/>
    <path id="Path_509" data-name="Path 509" d="M662.662,94.561A1.887,1.887,0,1,1,665.3,95,1.889,1.889,0,0,1,662.662,94.561Zm7.853,36.924a3.775,3.775,0,1,0-5.265-.873A3.775,3.775,0,0,0,670.516,131.485ZM638.023,99.04a7.549,7.549,0,1,0-10.533-1.747A7.549,7.549,0,0,0,638.023,99.04Zm48.083-45.229a3.774,3.774,0,1,0-5.266-.873A3.773,3.773,0,0,0,686.105,53.811Z" transform="translate(1015.92 124.449)" fill="url(#radial-gradient-21)" style="mix-blend-mode: screen;isolation: isolate"/>
    <path id="Path_46" data-name="Path 46" d="M461.334,44.742a1.5,1.5,0,1,1,1.148,1.777A1.495,1.495,0,0,1,461.334,44.742Zm-17.465,24.3a2.992,2.992,0,1,0-2.295-3.555A2.995,2.995,0,0,0,443.869,69.038Zm53.864-32.282a2.992,2.992,0,1,0-2.295-3.553A2.993,2.993,0,0,0,497.732,36.756Z" transform="translate(423.469 53.469)" fill="url(#radial-gradient-23)" style="mix-blend-mode: screen;isolation: isolate"/>
    <path id="Path_279" data-name="Path 279" d="M453.9,175.46a23.887,23.887,0,0,1,3.677-2.352q2.218-1.362,4.436-2.721,4.436-2.723,8.873-5.444,3.858-2.366,7.718-4.736c8.426-5.169,183.982-134.739,186.256-136.133C661.28,27.526,485.988,164.368,479,171.114q-4.539,4.384-9.08,8.763a78.9,78.9,0,0,1-6.263,6,7.225,7.225,0,0,1-10.806-9.137A5.094,5.094,0,0,1,453.9,175.46Z" transform="translate(476.813 -24.074)" opacity="0.187" fill="url(#linear-gradient)"/>
    <path id="Path_281" data-name="Path 281" d="M458.3,95.166s-4.284,1.465-4.452-2.058" transform="translate(439.419 133.937)" stroke="#c600e5" stroke-linecap="round" stroke-linejoin="round" stroke-width="0.5" fill="url(#linear-gradient-2)" style="mix-blend-mode: screen;isolation: isolate"/>
    <g id="Group_152" data-name="Group 152" transform="translate(1349.671 237.102)">
        <ellipse id="Ellipse_13" data-name="Ellipse 13" cx="39.38" cy="39.38" rx="39.38" ry="39.38" transform="translate(0 17.963) rotate(-13.184)" fill="url(#radial-gradient-24)"/>
        <ellipse id="Ellipse_14" data-name="Ellipse 14" cx="35.258" cy="35.258" rx="35.258" ry="35.258" transform="translate(3.304 23.904) rotate(-16.985)" fill="url(#radial-gradient-25)"/>
        <path id="Path_446" data-name="Path 446" d="M622.488,122.237c-1.586-3.023-1.107-7.367-.142-10.3,2.042-6.205,7.367-10.671,12.9-13.756,17.3-9.646,36.307,2.3,37.926,9.9s-6,11.626-16.358,9.183-18.157,9.057-25.307,9.093c-2.73.014-5.531-.44-7.654-2.343A6.3,6.3,0,0,1,622.488,122.237Z" transform="translate(-602.363 -79.378)" fill="url(#radial-gradient-26)" style="mix-blend-mode: screen;isolation: isolate"/>
        <g id="Group_106" data-name="Group 106" transform="translate(13.97 13.77)" opacity="0.7">
            <path id="Path_447" data-name="Path 447" d="M631.411,105.529a71.033,71.033,0,0,1-2.04-7.48,33.349,33.349,0,0,0-6.279,39.553,33.372,33.372,0,0,1,8.319-32.073Z" transform="translate(-619.221 -88.662)" fill="url(#radial-gradient-27)" style="mix-blend-mode: screen;isolation: isolate"/>
            <path id="Path_448" data-name="Path 448" d="M663.95,99.3a33.336,33.336,0,0,0-39.535,2.46,66.961,66.961,0,0,0,1.919,7.5,33.338,33.338,0,0,1,38.48-4.245A34.513,34.513,0,0,0,663.95,99.3Z" transform="translate(-612.509 -93.954)" fill="url(#radial-gradient-28)" style="mix-blend-mode: screen;isolation: isolate"/>
            <path id="Path_449" data-name="Path 449" d="M649.855,107.916a35.075,35.075,0,0,0-.2-3.73,33.5,33.5,0,0,0-7.2-7.351,39.767,39.767,0,0,1,.605,5.378A33.611,33.611,0,0,1,649.855,107.916Z" transform="translate(-589.204 -90.231)" fill="url(#radial-gradient-29)" style="mix-blend-mode: screen;isolation: isolate"/>
            <path id="Path_450" data-name="Path 450" d="M646.317,104.026a33.487,33.487,0,0,1,3.392,5.162,33,33,0,0,0-3.379-8.021C646.363,102.122,646.356,103.073,646.317,104.026Z" transform="translate(-584.206 -84.632)" fill="url(#radial-gradient-30)" style="mix-blend-mode: screen;isolation: isolate"/>
        </g>
        <path id="Path_451" data-name="Path 451" d="M677.041,97.635a28.232,28.232,0,1,1-54.7,9.829c0-.062,0-.119,0-.179a34.632,34.632,0,1,0,54.693-9.65Z" transform="translate(-605.97 -75.427)" opacity="0.5" fill="url(#radial-gradient-31)" style="mix-blend-mode: multiply;isolation: isolate"/>
        <g id="Group_107" data-name="Group 107" transform="translate(13.551 42.151)">
            <path id="Path_452" data-name="Path 452" d="M685.729,106.335l0,.149c0,19.049-14.987,34.489-33.472,34.489-17.107,0-31.216-13.229-33.222-30.3C619.12,129.647,634.071,145,652.505,145c18.485,0,33.469-15.441,33.469-34.487A35.921,35.921,0,0,0,685.729,106.335Z" transform="translate(-619.038 -106.335)" opacity="0.5" fill="url(#radial-gradient-32)" style="mix-blend-mode: multiply;isolation: isolate"/>
        </g>
        <g id="Group_108" data-name="Group 108" transform="translate(40.932 13.855)">
            <path id="Path_453" data-name="Path 453" d="M647.558,97.929c0,2.175-3.711,3.938-8.289,3.938s-8.287-1.763-8.287-3.938,3.711-3.938,8.287-3.938S647.558,95.754,647.558,97.929Z" transform="translate(-630.983 -93.991)" opacity="0.5" fill="url(#radial-gradient-33)" style="mix-blend-mode: multiply;isolation: isolate"/>
            <path id="Path_454" data-name="Path 454" d="M631.3,97.981c1.3,1.364,4.193,2.315,7.551,2.315,3.725,0,6.872-1.167,7.92-2.771-1.3-1.366-4.192-2.317-7.553-2.317C635.5,95.207,632.351,96.374,631.3,97.981Z" transform="translate(-630.568 -92.42)" opacity="0.5" fill="url(#radial-gradient-34)" style="mix-blend-mode: multiply;isolation: isolate"/>
        </g>
        <g id="Group_109" data-name="Group 109" transform="translate(72.764 45.44)">
            <path id="Path_455" data-name="Path 455" d="M647.442,124.063c-2.134-.424-3.14-4.408-2.246-8.9s3.344-7.785,5.478-7.36,3.138,4.406,2.246,8.9S649.574,124.488,647.442,124.063Z" transform="translate(-644.87 -107.77)" opacity="0.5" fill="url(#radial-gradient-35)" style="mix-blend-mode: multiply;isolation: isolate"/>
            <path id="Path_456" data-name="Path 456" d="M648.939,107.963c-1.593,1.009-3.088,3.658-3.743,6.955-.727,3.652-.2,6.966,1.174,8.307,1.593-1.011,3.09-3.661,3.743-6.955C650.839,112.619,650.31,109.3,648.939,107.963Z" transform="translate(-644.87 -107.521)" opacity="0.5" fill="url(#radial-gradient-36)" style="mix-blend-mode: multiply;isolation: isolate"/>
        </g>
        <g id="Group_110" data-name="Group 110" transform="translate(41.245 67.419)">
            <path id="Path_457" data-name="Path 457" d="M631.123,121.839c-.135-2.171,3.459-4.16,8.027-4.447s8.381,1.247,8.516,3.418-3.459,4.16-8.028,4.445S631.258,124.01,631.123,121.839Z" transform="translate(-631.119 -117.358)" opacity="0.5" fill="url(#radial-gradient-37)" style="mix-blend-mode: multiply;isolation: isolate"/>
            <path id="Path_458" data-name="Path 458" d="M646.662,119.235c-1.384-1.281-4.328-2.052-7.682-1.843-3.716.231-6.787,1.593-7.729,3.26,1.382,1.281,4.326,2.052,7.679,1.843C642.646,122.263,645.718,120.9,646.662,119.235Z" transform="translate(-630.949 -117.358)" opacity="0.5" fill="url(#radial-gradient-38)" style="mix-blend-mode: multiply;isolation: isolate"/>
        </g>
        <g id="Group_112" data-name="Group 112" transform="translate(27.483 47.911)">
            <g id="Group_111" data-name="Group 111">
                <path id="Path_459" data-name="Path 459" d="M626.331,112.195c2.563-3.833,8.339-4.468,12.9-1.417s6.185,8.63,3.622,12.463-8.337,4.468-12.9,1.417S623.768,116.027,626.331,112.195Z" transform="translate(-625.116 -108.848)" opacity="0.5" fill="url(#radial-gradient-39)" style="mix-blend-mode: multiply;isolation: isolate"/>
            </g>
            <path id="Path_460" data-name="Path 460" d="M638.4,110.777c-4.115-2.751-9.217-2.5-12.06.385-1.57,3.727.151,8.527,4.261,11.273s9.217,2.505,12.057-.383C644.228,118.326,642.507,113.526,638.4,110.777Z" transform="translate(-624.28 -108.847)" opacity="0.5" fill="url(#radial-gradient-40)" style="mix-blend-mode: multiply;isolation: isolate"/>
        </g>
        <g id="Group_114" data-name="Group 114" transform="translate(42.75 25.173)">
            <g id="Group_113" data-name="Group 113">
                <path id="Path_461" data-name="Path 461" d="M644.342,105.855c-.69,2.884-4.037,4.557-7.47,3.734s-5.66-3.83-4.97-6.716,4.037-4.557,7.473-3.734S645.034,102.969,644.342,105.855Z" transform="translate(-631.776 -98.928)" opacity="0.5" fill="url(#radial-gradient-41)" style="mix-blend-mode: multiply;isolation: isolate"/>
            </g>
            <path id="Path_462" data-name="Path 462" d="M636.87,108.647c3.1.743,6.123-.546,7.193-2.925.117-2.6-1.994-5.114-5.089-5.854s-6.123.546-7.193,2.923C631.665,105.392,633.776,107.9,636.87,108.647Z" transform="translate(-631.775 -97.986)" opacity="0.5" fill="url(#radial-gradient-42)" style="mix-blend-mode: multiply;isolation: isolate"/>
        </g>
        <g id="Group_116" data-name="Group 116" transform="translate(54.011 48.795)">
            <g id="Group_115" data-name="Group 115">
                <path id="Path_463" data-name="Path 463" d="M638.005,121.583c-2.35-2.888-1.469-7.5,1.969-10.3s8.131-2.725,10.483.163,1.469,7.5-1.969,10.3S640.357,124.471,638.005,121.583Z" transform="translate(-636.689 -109.234)" opacity="0.5" fill="url(#radial-gradient-43)" style="mix-blend-mode: multiply;isolation: isolate"/>
            </g>
            <path id="Path_464" data-name="Path 464" d="M639.974,111.285c-3.1,2.526-4.122,6.524-2.565,9.4,2.5,2.1,6.618,1.907,9.717-.614s4.122-6.522,2.565-9.4C647.185,108.576,643.071,108.764,639.974,111.285Z" transform="translate(-636.688 -109.233)" opacity="0.5" fill="url(#radial-gradient-44)" style="mix-blend-mode: multiply;isolation: isolate"/>
        </g>
        <g id="Group_117" data-name="Group 117" transform="translate(22.332 24.917)">
            <path id="Path_465" data-name="Path 465" d="M631.33,99.129c1.385,1.013.777,4.195-1.355,7.1s-4.981,4.452-6.366,3.438-.775-4.195,1.357-7.106S629.948,98.116,631.33,99.129Z" transform="translate(-622.869 -98.817)" opacity="0.5" fill="url(#radial-gradient-45)" style="mix-blend-mode: multiply;isolation: isolate"/>
            <path id="Path_466" data-name="Path 466" d="M623.889,109.344c1.474-.19,3.425-1.586,4.99-3.725,1.733-2.366,2.46-4.912,1.926-6.327-1.476.193-3.427,1.589-4.99,3.725C624.08,105.385,623.355,107.932,623.889,109.344Z" transform="translate(-621.773 -98.203)" opacity="0.5" fill="url(#radial-gradient-46)" style="mix-blend-mode: multiply;isolation: isolate"/>
        </g>
        <g id="Group_118" data-name="Group 118" transform="translate(15.671 55.465)">
            <path id="Path_467" data-name="Path 467" d="M621.162,112.42c1.873-1.1,5.277,1.2,7.6,5.142s2.687,8.037.814,9.139-5.277-1.2-7.6-5.142S619.287,113.523,621.162,112.42Z" transform="translate(-619.963 -112.143)" opacity="0.5" fill="url(#radial-gradient-47)" style="mix-blend-mode: multiply;isolation: isolate"/>
            <path id="Path_468" data-name="Path 468" d="M629.346,125.241c.518-1.813-.131-4.786-1.836-7.681-1.889-3.207-4.493-5.33-6.407-5.414-.516,1.813.133,4.786,1.836,7.681C624.831,123.033,627.432,125.154,629.346,125.241Z" transform="translate(-618.712 -112.141)" opacity="0.5" fill="url(#radial-gradient-48)" style="mix-blend-mode: multiply;isolation: isolate"/>
        </g>
        <g id="Group_119" data-name="Group 119" transform="translate(59.342 17.884)">
            <path id="Path_469" data-name="Path 469" d="M647.3,101.127c-.617,1.066-2.934.883-5.178-.41s-3.567-3.207-2.952-4.273,2.932-.885,5.178.408S647.91,100.059,647.3,101.127Z" transform="translate(-639.014 -95.749)" opacity="0.5" fill="url(#radial-gradient-49)" style="mix-blend-mode: multiply;isolation: isolate"/>
            <path id="Path_470" data-name="Path 470" d="M639.037,96.616a6.249,6.249,0,0,0,3.051,3.271c1.824,1.052,3.7,1.368,4.667.878a6.24,6.24,0,0,0-3.051-3.271C641.879,96.442,640,96.126,639.037,96.616Z" transform="translate(-638.985 -94.919)" opacity="0.5" fill="url(#radial-gradient-50)" style="mix-blend-mode: multiply;isolation: isolate"/>
        </g>
        <g id="Group_120" data-name="Group 120" transform="translate(52.569 75.114)">
            <path id="Path_471" data-name="Path 471" d="M636.092,124.3c-.3-1.194,1.495-2.673,4.007-3.3s4.793-.172,5.093,1.022-1.495,2.673-4.009,3.3S636.391,125.5,636.092,124.3Z" transform="translate(-636.06 -120.715)" opacity="0.5" fill="url(#radial-gradient-51)" style="mix-blend-mode: multiply;isolation: isolate"/>
            <path id="Path_472" data-name="Path 472" d="M644.523,121.23a6.237,6.237,0,0,0-4.465-.232c-2.042.513-3.613,1.586-3.966,2.613a6.251,6.251,0,0,0,4.465.232C642.6,123.33,644.17,122.257,644.523,121.23Z" transform="translate(-636.018 -120.715)" opacity="0.5" fill="url(#radial-gradient-52)" style="mix-blend-mode: multiply;isolation: isolate"/>
        </g>
        <g id="Group_121" data-name="Group 121" transform="translate(13.924 44.382)">
            <path id="Path_473" data-name="Path 473" d="M621.207,107.31c1.229-.062,2.329,1.987,2.457,4.575s-.763,4.734-1.994,4.8-2.329-1.987-2.457-4.575S619.976,107.369,621.207,107.31Z" transform="translate(-619.201 -107.308)" opacity="0.5" fill="url(#radial-gradient-53)" style="mix-blend-mode: multiply;isolation: isolate"/>
            <path id="Path_474" data-name="Path 474" d="M621.684,116.117a6.233,6.233,0,0,0,1.1-4.332c-.1-2.107-.853-3.853-1.788-4.4a6.237,6.237,0,0,0-1.1,4.332C620,113.823,620.746,115.572,621.684,116.117Z" transform="translate(-618.318 -107.208)" opacity="0.5" fill="url(#radial-gradient-54)" style="mix-blend-mode: multiply;isolation: isolate"/>
        </g>
        <g id="Group_122" data-name="Group 122" transform="translate(36.154 76.014)">
            <path id="Path_475" data-name="Path 475" d="M628.927,122.46c.28-1.2,2.554-1.694,5.075-1.1s4.341,2.038,4.062,3.237-2.551,1.692-5.075,1.1S628.647,123.659,628.927,122.46Z" transform="translate(-628.899 -121.108)" opacity="0.5" fill="url(#radial-gradient-55)" style="mix-blend-mode: multiply;isolation: isolate"/>
            <path id="Path_476" data-name="Path 476" d="M637.651,123.6a6.236,6.236,0,0,0-3.865-2.246c-2.052-.481-3.938-.243-4.72.509a6.236,6.236,0,0,0,3.862,2.246C634.982,124.592,636.867,124.356,637.651,123.6Z" transform="translate(-628.682 -121.108)" opacity="0.5" fill="url(#radial-gradient-56)" style="mix-blend-mode: multiply;isolation: isolate"/>
        </g>
        <g id="Group_123" data-name="Group 123" transform="translate(77.109 37.63)">
            <path id="Path_477" data-name="Path 477" d="M650.1,111.146c-.883.337-2.171-.9-2.881-2.753s-.568-3.638.314-3.975,2.173.9,2.884,2.755S650.983,110.809,650.1,111.146Z" transform="translate(-646.765 -104.363)" opacity="0.5" fill="url(#radial-gradient-57)" style="mix-blend-mode: multiply;isolation: isolate"/>
            <path id="Path_478" data-name="Path 478" d="M646.987,104.627a4.79,4.79,0,0,0,.229,3.425c.578,1.511,1.538,2.609,2.352,2.783a4.784,4.784,0,0,0-.229-3.422C648.761,105.9,647.8,104.8,646.987,104.627Z" transform="translate(-646.765 -104.021)" opacity="0.5" fill="url(#radial-gradient-58)" style="mix-blend-mode: multiply;isolation: isolate"/>
        </g>
        <g id="Group_124" data-name="Group 124" transform="translate(70.326 63.28)">
            <path id="Path_479" data-name="Path 479" d="M644.159,121.309c-.729-.6-.291-2.334.974-3.865s2.886-2.285,3.613-1.685.291,2.334-.974,3.865S644.885,121.91,644.159,121.309Z" transform="translate(-643.806 -115.553)" opacity="0.5" fill="url(#radial-gradient-59)" style="mix-blend-mode: multiply;isolation: isolate"/>
            <path id="Path_480" data-name="Path 480" d="M648,115.555a4.786,4.786,0,0,0-2.868,1.887c-1.029,1.245-1.511,2.622-1.263,3.418a4.792,4.792,0,0,0,2.865-1.887C647.767,117.726,648.248,116.348,648,115.555Z" transform="translate(-643.806 -115.55)" opacity="0.5" fill="url(#radial-gradient-60)" style="mix-blend-mode: multiply;isolation: isolate"/>
        </g>
        <g id="Group_125" data-name="Group 125" transform="translate(20.192 50.835)">
            <path id="Path_481" data-name="Path 481" d="M622.519,110.152c.612-.2,1.449.683,1.868,1.971s.266,2.494-.346,2.693-1.451-.683-1.87-1.971S621.907,110.351,622.519,110.152Z" transform="translate(-621.935 -110.124)" opacity="0.5" fill="url(#radial-gradient-61)" style="mix-blend-mode: multiply;isolation: isolate"/>
            <path id="Path_482" data-name="Path 482" d="M624.005,114.447a3.254,3.254,0,0,0-.041-2.338,2.941,2.941,0,0,0-1.506-1.974,3.253,3.253,0,0,0,.041,2.338A2.941,2.941,0,0,0,624.005,114.447Z" transform="translate(-621.512 -110.109)" opacity="0.5" fill="url(#radial-gradient-62)" style="mix-blend-mode: multiply;isolation: isolate"/>
        </g>
        <g id="Group_126" data-name="Group 126" transform="translate(37.099 31.336)">
            <path id="Path_483" data-name="Path 483" d="M633.705,102.442a2.5,2.5,0,1,1-3.161-.362A2.272,2.272,0,0,1,633.705,102.442Z" transform="translate(-629.311 -101.617)" opacity="0.5" fill="url(#radial-gradient-63)" style="mix-blend-mode: multiply;isolation: isolate"/>
            <path id="Path_484" data-name="Path 484" d="M629.734,105.05a2.526,2.526,0,0,0,2.524-.218,2.447,2.447,0,0,0,1.19-2.471,2.52,2.52,0,0,0-2.524.218A2.443,2.443,0,0,0,629.734,105.05Z" transform="translate(-628.819 -100.972)" opacity="0.5" fill="url(#radial-gradient-64)" style="mix-blend-mode: multiply;isolation: isolate"/>
        </g>
        <g id="Group_127" data-name="Group 127" transform="translate(55.101 22.317)">
            <path id="Path_485" data-name="Path 485" d="M641.764,100c-.236.6-1.451.679-2.709.177s-2.088-1.391-1.85-1.99,1.451-.676,2.709-.177S642,99.4,641.764,100Z" transform="translate(-637.164 -97.682)" opacity="0.5" fill="url(#radial-gradient-65)" style="mix-blend-mode: multiply;isolation: isolate"/>
            <path id="Path_486" data-name="Path 486" d="M637.193,98.26a3.256,3.256,0,0,0,1.825,1.462,2.935,2.935,0,0,0,2.48.1,3.257,3.257,0,0,0-1.822-1.462A2.949,2.949,0,0,0,637.193,98.26Z" transform="translate(-637.127 -97.227)" opacity="0.5" fill="url(#radial-gradient-66)" style="mix-blend-mode: multiply;isolation: isolate"/>
        </g>
        <g id="Group_128" data-name="Group 128" transform="translate(69.52 47.384)">
            <path id="Path_487" data-name="Path 487" d="M644.455,112.409a2.014,2.014,0,1,1,2.015-1.437A1.777,1.777,0,0,1,644.455,112.409Z" transform="translate(-643.454 -108.618)" opacity="0.5" fill="url(#radial-gradient-67)" style="mix-blend-mode: multiply;isolation: isolate"/>
            <path id="Path_488" data-name="Path 488" d="M644.923,108.634a2.037,2.037,0,0,0-1.364,1.449,1.953,1.953,0,0,0,.491,2.093,2.04,2.04,0,0,0,1.366-1.449A1.958,1.958,0,0,0,644.923,108.634Z" transform="translate(-643.454 -108.597)" opacity="0.5" fill="url(#radial-gradient-68)" style="mix-blend-mode: multiply;isolation: isolate"/>
        </g>
        <g id="Group_129" data-name="Group 129" transform="translate(23.706 18.376)">
            <path id="Path_489" data-name="Path 489" d="M631.062,96.444c.766.965-.255,3.053-2.281,4.667s-4.291,2.143-5.059,1.181.254-3.053,2.281-4.667S630.294,95.481,631.062,96.444Z" transform="translate(-623.468 -95.963)" opacity="0.5" fill="url(#radial-gradient-69)" style="mix-blend-mode: multiply;isolation: isolate"/>
            <path id="Path_490" data-name="Path 490" d="M623.975,102.126a6.247,6.247,0,0,0,4.16-1.639c1.648-1.313,2.632-2.939,2.528-4.018A6.231,6.231,0,0,0,626.5,98.1C624.855,99.418,623.872,101.046,623.975,102.126Z" transform="translate(-622.822 -95.339)" opacity="0.5" fill="url(#radial-gradient-70)" style="mix-blend-mode: multiply;isolation: isolate"/>
        </g>
        <path id="Path_491" data-name="Path 491" d="M642.826,118.412c.273.477-.19,1.252-1.032,1.731s-1.744.481-2.015,0,.19-1.252,1.032-1.731S642.555,117.935,642.826,118.412Z" transform="translate(-578.785 -49.038)" opacity="0.5" fill="url(#radial-gradient-71)" style="mix-blend-mode: multiply;isolation: isolate"/>
        <path id="Path_492" data-name="Path 492" d="M642.874,117.125c.165.289-.115.761-.626,1.052s-1.061.293-1.226,0,.115-.761.626-1.052S642.709,116.834,642.874,117.125Z" transform="translate(-577.139 -50.521)" opacity="0.5" fill="url(#radial-gradient-72)" style="mix-blend-mode: multiply;isolation: isolate"/>
        <g id="Group_130" data-name="Group 130" transform="translate(24.859 58.395)">
            <path id="Path_493" data-name="Path 493" d="M626.174,116.985c-.546.275-1.382-.284-1.868-1.247s-.436-1.971.11-2.246,1.385.284,1.868,1.249S626.721,116.71,626.174,116.985Z" transform="translate(-623.971 -113.421)" opacity="0.5" fill="url(#radial-gradient-73)" style="mix-blend-mode: multiply;isolation: isolate"/>
            <path id="Path_494" data-name="Path 494" d="M626.5,117.147c-.33.167-.837-.172-1.13-.754s-.264-1.192.066-1.357.837.172,1.13.754S626.826,116.982,626.5,117.147Z" transform="translate(-622.43 -111.39)" opacity="0.5" fill="url(#radial-gradient-74)" style="mix-blend-mode: multiply;isolation: isolate"/>
        </g>
        <path id="Path_495" data-name="Path 495" d="M622.062,110.878c-.3.037-.594-.362-.658-.889s.128-.986.429-1.022.591.364.655.892S622.36,110.844,622.062,110.878Z" transform="translate(-602.444 -60.787)" opacity="0.5" fill="url(#radial-gradient-75)" style="mix-blend-mode: multiply;isolation: isolate"/>
        <path id="Path_496" data-name="Path 496" d="M646.734,107.5c-.435.053-.864-.527-.956-1.3s.186-1.435.621-1.488.864.53.956,1.3S647.169,107.447,646.734,107.5Z" transform="translate(-570.955 -66.28)" opacity="0.5" fill="url(#radial-gradient-76)" style="mix-blend-mode: multiply;isolation: isolate"/>
        <path id="Path_497" data-name="Path 497" d="M646.322,108.126c-.284.034-.564-.346-.623-.848s.121-.94.406-.974.566.346.626.85S646.609,108.091,646.322,108.126Z" transform="translate(-571.05 -64.228)" opacity="0.5" fill="url(#radial-gradient-77)" style="mix-blend-mode: multiply;isolation: isolate"/>
        <g id="Group_131" data-name="Group 131" transform="translate(28.034 69.307)">
            <path id="Path_498" data-name="Path 498" d="M628.841,121.91c-.342.429-1.233.289-1.992-.314s-1.093-1.44-.752-1.87,1.233-.287,1.99.316S629.183,121.481,628.841,121.91Z" transform="translate(-624.571 -116.507)" opacity="0.5" fill="url(#radial-gradient-78)" style="mix-blend-mode: multiply;isolation: isolate"/>
            <path id="Path_499" data-name="Path 499" d="M629.6,121.612c-.209.261-.75.174-1.213-.193s-.665-.876-.456-1.137.75-.174,1.21.193S629.808,121.35,629.6,121.612Z" transform="translate(-622.132 -115.663)" opacity="0.5" fill="url(#radial-gradient-79)" style="mix-blend-mode: multiply;isolation: isolate"/>
            <path id="Path_500" data-name="Path 500" d="M627.107,119.663c-.208.259-.752.174-1.213-.193s-.665-.876-.456-1.137.749-.177,1.21.19S627.313,119.4,627.107,119.663Z" transform="translate(-625.356 -118.182)" opacity="0.5" fill="url(#radial-gradient-80)" style="mix-blend-mode: multiply;isolation: isolate"/>
        </g>
        <path id="Path_501" data-name="Path 501" d="M629.08,97.785c-.186-.516.4-1.2,1.313-1.529s1.8-.174,1.985.342-.4,1.2-1.313,1.529S629.266,98.3,629.08,97.785Zm-.937,2.645c.555-.2.912-.617.8-.931s-.653-.406-1.208-.206-.912.614-.8.931S627.59,100.63,628.143,100.43Zm6.808-2.519c.553-.2.91-.617.8-.931s-.653-.408-1.208-.206-.912.614-.8.928S634.4,98.111,634.951,97.911Zm23.881,6.042c.156-.527,1.036-.729,1.964-.454s1.554.924,1.4,1.451-1.034.729-1.964.454S658.676,104.479,658.832,103.954Zm4.658,3.576c.564.167,1.1.044,1.194-.275s-.287-.715-.853-.883-1.1-.046-1.194.275S662.923,107.362,663.489,107.53Z" transform="translate(-595.309 -77.432)" opacity="0.5" fill="url(#radial-gradient-81)" style="mix-blend-mode: screen;isolation: isolate"/>
    </g>
    <g id="Group_167" data-name="Group 167" transform="translate(1724.068 321.24)">
        <ellipse id="Ellipse_13-2" data-name="Ellipse 13" cx="39.38" cy="39.38" rx="39.38" ry="39.38" transform="translate(0 17.963) rotate(-13.184)" fill="#c91687"/>
        <ellipse id="Ellipse_14-2" data-name="Ellipse 14" cx="35.258" cy="35.258" rx="35.258" ry="35.258" transform="translate(3.304 23.904) rotate(-16.985)" fill="#c91687"/>
        <path id="Path_446-2" data-name="Path 446" d="M622.488,122.237c-1.586-3.023-1.107-7.367-.142-10.3,2.042-6.205,7.367-10.671,12.9-13.756,17.3-9.646,36.307,2.3,37.926,9.9s-6,11.626-16.358,9.183-18.157,9.057-25.307,9.093c-2.73.014-5.531-.44-7.654-2.343A6.3,6.3,0,0,1,622.488,122.237Z" transform="translate(-602.363 -79.378)" fill="#c91687" style="mix-blend-mode: screen;isolation: isolate"/>
        <g id="Group_106-2" data-name="Group 106" transform="translate(13.97 13.77)" opacity="0.7">
            <path id="Path_447-2" data-name="Path 447" d="M631.411,105.529a71.033,71.033,0,0,1-2.04-7.48,33.349,33.349,0,0,0-6.279,39.553,33.372,33.372,0,0,1,8.319-32.073Z" transform="translate(-619.221 -88.662)" fill="#c91687" style="mix-blend-mode: screen;isolation: isolate"/>
            <path id="Path_448-2" data-name="Path 448" d="M663.95,99.3a33.336,33.336,0,0,0-39.535,2.46,66.961,66.961,0,0,0,1.919,7.5,33.338,33.338,0,0,1,38.48-4.245A34.513,34.513,0,0,0,663.95,99.3Z" transform="translate(-612.509 -93.954)" fill="#c91687" style="mix-blend-mode: screen;isolation: isolate"/>
            <path id="Path_449-2" data-name="Path 449" d="M649.855,107.916a35.075,35.075,0,0,0-.2-3.73,33.5,33.5,0,0,0-7.2-7.351,39.767,39.767,0,0,1,.605,5.378A33.611,33.611,0,0,1,649.855,107.916Z" transform="translate(-589.204 -90.231)" fill="#c91687" style="mix-blend-mode: screen;isolation: isolate"/>
            <path id="Path_450-2" data-name="Path 450" d="M646.317,104.026a33.487,33.487,0,0,1,3.392,5.162,33,33,0,0,0-3.379-8.021C646.363,102.122,646.356,103.073,646.317,104.026Z" transform="translate(-584.206 -84.632)" fill="#c91687" style="mix-blend-mode: screen;isolation: isolate"/>
        </g>
        <path id="Path_451-2" data-name="Path 451" d="M677.041,97.635a28.232,28.232,0,1,1-54.7,9.829c0-.062,0-.119,0-.179a34.632,34.632,0,1,0,54.693-9.65Z" transform="translate(-605.97 -75.427)" fill="#c91687" opacity="0.5" style="mix-blend-mode: multiply;isolation: isolate"/>
        <g id="Group_107-2" data-name="Group 107" transform="translate(13.551 42.151)">
            <path id="Path_452-2" data-name="Path 452" d="M685.729,106.335l0,.149c0,19.049-14.987,34.489-33.472,34.489-17.107,0-31.216-13.229-33.222-30.3C619.12,129.647,634.071,145,652.505,145c18.485,0,33.469-15.441,33.469-34.487A35.921,35.921,0,0,0,685.729,106.335Z" transform="translate(-619.038 -106.335)" fill="#c91687" opacity="0.5" style="mix-blend-mode: multiply;isolation: isolate"/>
        </g>
        <g id="Group_108-2" data-name="Group 108" transform="translate(40.932 13.855)">
            <path id="Path_453-2" data-name="Path 453" d="M647.558,97.929c0,2.175-3.711,3.938-8.289,3.938s-8.287-1.763-8.287-3.938,3.711-3.938,8.287-3.938S647.558,95.754,647.558,97.929Z" transform="translate(-630.983 -93.991)" fill="#c91687" opacity="0.5" style="mix-blend-mode: multiply;isolation: isolate"/>
            <path id="Path_454-2" data-name="Path 454" d="M631.3,97.981c1.3,1.364,4.193,2.315,7.551,2.315,3.725,0,6.872-1.167,7.92-2.771-1.3-1.366-4.192-2.317-7.553-2.317C635.5,95.207,632.351,96.374,631.3,97.981Z" transform="translate(-630.568 -92.42)" fill="#c91687" opacity="0.5" style="mix-blend-mode: multiply;isolation: isolate"/>
        </g>
        <g id="Group_109-2" data-name="Group 109" transform="translate(72.764 45.44)">
            <path id="Path_455-2" data-name="Path 455" d="M647.442,124.063c-2.134-.424-3.14-4.408-2.246-8.9s3.344-7.785,5.478-7.36,3.138,4.406,2.246,8.9S649.574,124.488,647.442,124.063Z" transform="translate(-644.87 -107.77)" fill="#c91687" opacity="0.5" style="mix-blend-mode: multiply;isolation: isolate"/>
            <path id="Path_456-2" data-name="Path 456" d="M648.939,107.963c-1.593,1.009-3.088,3.658-3.743,6.955-.727,3.652-.2,6.966,1.174,8.307,1.593-1.011,3.09-3.661,3.743-6.955C650.839,112.619,650.31,109.3,648.939,107.963Z" transform="translate(-644.87 -107.521)" fill="#c91687" opacity="0.5" style="mix-blend-mode: multiply;isolation: isolate"/>
        </g>
        <g id="Group_110-2" data-name="Group 110" transform="translate(41.245 67.419)">
            <path id="Path_457-2" data-name="Path 457" d="M631.123,121.839c-.135-2.171,3.459-4.16,8.027-4.447s8.381,1.247,8.516,3.418-3.459,4.16-8.028,4.445S631.258,124.01,631.123,121.839Z" transform="translate(-631.119 -117.358)" fill="#c91687" opacity="0.5" style="mix-blend-mode: multiply;isolation: isolate"/>
            <path id="Path_458-2" data-name="Path 458" d="M646.662,119.235c-1.384-1.281-4.328-2.052-7.682-1.843-3.716.231-6.787,1.593-7.729,3.26,1.382,1.281,4.326,2.052,7.679,1.843C642.646,122.263,645.718,120.9,646.662,119.235Z" transform="translate(-630.949 -117.358)" fill="#c91687" opacity="0.5" style="mix-blend-mode: multiply;isolation: isolate"/>
        </g>
        <g id="Group_112-2" data-name="Group 112" transform="translate(27.483 47.911)">
            <g id="Group_111-2" data-name="Group 111">
                <path id="Path_459-2" data-name="Path 459" d="M626.331,112.195c2.563-3.833,8.339-4.468,12.9-1.417s6.185,8.63,3.622,12.463-8.337,4.468-12.9,1.417S623.768,116.027,626.331,112.195Z" transform="translate(-625.116 -108.848)" fill="#c91687" opacity="0.5" style="mix-blend-mode: multiply;isolation: isolate"/>
            </g>
            <path id="Path_460-2" data-name="Path 460" d="M638.4,110.777c-4.115-2.751-9.217-2.5-12.06.385-1.57,3.727.151,8.527,4.261,11.273s9.217,2.505,12.057-.383C644.228,118.326,642.507,113.526,638.4,110.777Z" transform="translate(-624.28 -108.847)" fill="#c91687" opacity="0.5" style="mix-blend-mode: multiply;isolation: isolate"/>
        </g>
        <g id="Group_114-2" data-name="Group 114" transform="translate(42.75 25.173)">
            <g id="Group_113-2" data-name="Group 113">
                <path id="Path_461-2" data-name="Path 461" d="M644.342,105.855c-.69,2.884-4.037,4.557-7.47,3.734s-5.66-3.83-4.97-6.716,4.037-4.557,7.473-3.734S645.034,102.969,644.342,105.855Z" transform="translate(-631.776 -98.928)" fill="#c91687" opacity="0.5" style="mix-blend-mode: multiply;isolation: isolate"/>
            </g>
            <path id="Path_462-2" data-name="Path 462" d="M636.87,108.647c3.1.743,6.123-.546,7.193-2.925.117-2.6-1.994-5.114-5.089-5.854s-6.123.546-7.193,2.923C631.665,105.392,633.776,107.9,636.87,108.647Z" transform="translate(-631.775 -97.986)" fill="#c91687" opacity="0.5" style="mix-blend-mode: multiply;isolation: isolate"/>
        </g>
        <g id="Group_116-2" data-name="Group 116" transform="translate(54.011 48.795)">
            <g id="Group_115-2" data-name="Group 115">
                <path id="Path_463-2" data-name="Path 463" d="M638.005,121.583c-2.35-2.888-1.469-7.5,1.969-10.3s8.131-2.725,10.483.163,1.469,7.5-1.969,10.3S640.357,124.471,638.005,121.583Z" transform="translate(-636.689 -109.234)" fill="#c91687" opacity="0.5" style="mix-blend-mode: multiply;isolation: isolate"/>
            </g>
            <path id="Path_464-2" data-name="Path 464" d="M639.974,111.285c-3.1,2.526-4.122,6.524-2.565,9.4,2.5,2.1,6.618,1.907,9.717-.614s4.122-6.522,2.565-9.4C647.185,108.576,643.071,108.764,639.974,111.285Z" transform="translate(-636.688 -109.233)" fill="#c91687" opacity="0.5" style="mix-blend-mode: multiply;isolation: isolate"/>
        </g>
        <g id="Group_117-2" data-name="Group 117" transform="translate(22.332 24.917)">
            <path id="Path_465-2" data-name="Path 465" d="M631.33,99.129c1.385,1.013.777,4.195-1.355,7.1s-4.981,4.452-6.366,3.438-.775-4.195,1.357-7.106S629.948,98.116,631.33,99.129Z" transform="translate(-622.869 -98.817)" fill="#c91687" opacity="0.5" style="mix-blend-mode: multiply;isolation: isolate"/>
            <path id="Path_466-2" data-name="Path 466" d="M623.889,109.344c1.474-.19,3.425-1.586,4.99-3.725,1.733-2.366,2.46-4.912,1.926-6.327-1.476.193-3.427,1.589-4.99,3.725C624.08,105.385,623.355,107.932,623.889,109.344Z" transform="translate(-621.773 -98.203)" fill="#c91687" opacity="0.5" style="mix-blend-mode: multiply;isolation: isolate"/>
        </g>
        <g id="Group_118-2" data-name="Group 118" transform="translate(15.671 55.465)">
            <path id="Path_467-2" data-name="Path 467" d="M621.162,112.42c1.873-1.1,5.277,1.2,7.6,5.142s2.687,8.037.814,9.139-5.277-1.2-7.6-5.142S619.287,113.523,621.162,112.42Z" transform="translate(-619.963 -112.143)" fill="#c91687" opacity="0.5" style="mix-blend-mode: multiply;isolation: isolate"/>
            <path id="Path_468-2" data-name="Path 468" d="M629.346,125.241c.518-1.813-.131-4.786-1.836-7.681-1.889-3.207-4.493-5.33-6.407-5.414-.516,1.813.133,4.786,1.836,7.681C624.831,123.033,627.432,125.154,629.346,125.241Z" transform="translate(-618.712 -112.141)" fill="#c91687" opacity="0.5" style="mix-blend-mode: multiply;isolation: isolate"/>
        </g>
        <g id="Group_119-2" data-name="Group 119" transform="translate(59.342 17.884)">
            <path id="Path_469-2" data-name="Path 469" d="M647.3,101.127c-.617,1.066-2.934.883-5.178-.41s-3.567-3.207-2.952-4.273,2.932-.885,5.178.408S647.91,100.059,647.3,101.127Z" transform="translate(-639.014 -95.749)" fill="#c91687" opacity="0.5" style="mix-blend-mode: multiply;isolation: isolate"/>
            <path id="Path_470-2" data-name="Path 470" d="M639.037,96.616a6.249,6.249,0,0,0,3.051,3.271c1.824,1.052,3.7,1.368,4.667.878a6.24,6.24,0,0,0-3.051-3.271C641.879,96.442,640,96.126,639.037,96.616Z" transform="translate(-638.985 -94.919)" fill="#c91687" opacity="0.5" style="mix-blend-mode: multiply;isolation: isolate"/>
        </g>
        <g id="Group_120-2" data-name="Group 120" transform="translate(52.569 75.114)">
            <path id="Path_471-2" data-name="Path 471" d="M636.092,124.3c-.3-1.194,1.495-2.673,4.007-3.3s4.793-.172,5.093,1.022-1.495,2.673-4.009,3.3S636.391,125.5,636.092,124.3Z" transform="translate(-636.06 -120.715)" fill="#c91687" opacity="0.5" style="mix-blend-mode: multiply;isolation: isolate"/>
            <path id="Path_472-2" data-name="Path 472" d="M644.523,121.23a6.237,6.237,0,0,0-4.465-.232c-2.042.513-3.613,1.586-3.966,2.613a6.251,6.251,0,0,0,4.465.232C642.6,123.33,644.17,122.257,644.523,121.23Z" transform="translate(-636.018 -120.715)" fill="#c91687" opacity="0.5" style="mix-blend-mode: multiply;isolation: isolate"/>
        </g>
        <g id="Group_121-2" data-name="Group 121" transform="translate(13.924 44.382)">
            <path id="Path_473-2" data-name="Path 473" d="M621.207,107.31c1.229-.062,2.329,1.987,2.457,4.575s-.763,4.734-1.994,4.8-2.329-1.987-2.457-4.575S619.976,107.369,621.207,107.31Z" transform="translate(-619.201 -107.308)" fill="#c91687" opacity="0.5" style="mix-blend-mode: multiply;isolation: isolate"/>
            <path id="Path_474-2" data-name="Path 474" d="M621.684,116.117a6.233,6.233,0,0,0,1.1-4.332c-.1-2.107-.853-3.853-1.788-4.4a6.237,6.237,0,0,0-1.1,4.332C620,113.823,620.746,115.572,621.684,116.117Z" transform="translate(-618.318 -107.208)" fill="#c91687" opacity="0.5" style="mix-blend-mode: multiply;isolation: isolate"/>
        </g>
        <g id="Group_122-2" data-name="Group 122" transform="translate(36.154 76.014)">
            <path id="Path_475-2" data-name="Path 475" d="M628.927,122.46c.28-1.2,2.554-1.694,5.075-1.1s4.341,2.038,4.062,3.237-2.551,1.692-5.075,1.1S628.647,123.659,628.927,122.46Z" transform="translate(-628.899 -121.108)" fill="#c91687" opacity="0.5" style="mix-blend-mode: multiply;isolation: isolate"/>
            <path id="Path_476-2" data-name="Path 476" d="M637.651,123.6a6.236,6.236,0,0,0-3.865-2.246c-2.052-.481-3.938-.243-4.72.509a6.236,6.236,0,0,0,3.862,2.246C634.982,124.592,636.867,124.356,637.651,123.6Z" transform="translate(-628.682 -121.108)" fill="#c91687" opacity="0.5" style="mix-blend-mode: multiply;isolation: isolate"/>
        </g>
        <g id="Group_123-2" data-name="Group 123" transform="translate(77.109 37.63)">
            <path id="Path_477-2" data-name="Path 477" d="M650.1,111.146c-.883.337-2.171-.9-2.881-2.753s-.568-3.638.314-3.975,2.173.9,2.884,2.755S650.983,110.809,650.1,111.146Z" transform="translate(-646.765 -104.363)" fill="#c91687" opacity="0.5" style="mix-blend-mode: multiply;isolation: isolate"/>
            <path id="Path_478-2" data-name="Path 478" d="M646.987,104.627a4.79,4.79,0,0,0,.229,3.425c.578,1.511,1.538,2.609,2.352,2.783a4.784,4.784,0,0,0-.229-3.422C648.761,105.9,647.8,104.8,646.987,104.627Z" transform="translate(-646.765 -104.021)" fill="#c91687" opacity="0.5" style="mix-blend-mode: multiply;isolation: isolate"/>
        </g>
        <g id="Group_124-2" data-name="Group 124" transform="translate(70.326 63.28)">
            <path id="Path_479-2" data-name="Path 479" d="M644.159,121.309c-.729-.6-.291-2.334.974-3.865s2.886-2.285,3.613-1.685.291,2.334-.974,3.865S644.885,121.91,644.159,121.309Z" transform="translate(-643.806 -115.553)" fill="#c91687" opacity="0.5" style="mix-blend-mode: multiply;isolation: isolate"/>
            <path id="Path_480-2" data-name="Path 480" d="M648,115.555a4.786,4.786,0,0,0-2.868,1.887c-1.029,1.245-1.511,2.622-1.263,3.418a4.792,4.792,0,0,0,2.865-1.887C647.767,117.726,648.248,116.348,648,115.555Z" transform="translate(-643.806 -115.55)" fill="#c91687" opacity="0.5" style="mix-blend-mode: multiply;isolation: isolate"/>
        </g>
        <g id="Group_125-2" data-name="Group 125" transform="translate(20.192 50.835)">
            <path id="Path_481-2" data-name="Path 481" d="M622.519,110.152c.612-.2,1.449.683,1.868,1.971s.266,2.494-.346,2.693-1.451-.683-1.87-1.971S621.907,110.351,622.519,110.152Z" transform="translate(-621.935 -110.124)" fill="#c91687" opacity="0.5" style="mix-blend-mode: multiply;isolation: isolate"/>
            <path id="Path_482-2" data-name="Path 482" d="M624.005,114.447a3.254,3.254,0,0,0-.041-2.338,2.941,2.941,0,0,0-1.506-1.974,3.253,3.253,0,0,0,.041,2.338A2.941,2.941,0,0,0,624.005,114.447Z" transform="translate(-621.512 -110.109)" fill="#c91687" opacity="0.5" style="mix-blend-mode: multiply;isolation: isolate"/>
        </g>
        <g id="Group_126-2" data-name="Group 126" transform="translate(37.099 31.336)">
            <path id="Path_483-2" data-name="Path 483" d="M633.705,102.442a2.5,2.5,0,1,1-3.161-.362A2.272,2.272,0,0,1,633.705,102.442Z" transform="translate(-629.311 -101.617)" fill="#c91687" opacity="0.5" style="mix-blend-mode: multiply;isolation: isolate"/>
            <path id="Path_484-2" data-name="Path 484" d="M629.734,105.05a2.526,2.526,0,0,0,2.524-.218,2.447,2.447,0,0,0,1.19-2.471,2.52,2.52,0,0,0-2.524.218A2.443,2.443,0,0,0,629.734,105.05Z" transform="translate(-628.819 -100.972)" fill="#c91687" opacity="0.5" style="mix-blend-mode: multiply;isolation: isolate"/>
        </g>
        <g id="Group_127-2" data-name="Group 127" transform="translate(55.101 22.317)">
            <path id="Path_485-2" data-name="Path 485" d="M641.764,100c-.236.6-1.451.679-2.709.177s-2.088-1.391-1.85-1.99,1.451-.676,2.709-.177S642,99.4,641.764,100Z" transform="translate(-637.164 -97.682)" fill="#c91687" opacity="0.5" style="mix-blend-mode: multiply;isolation: isolate"/>
            <path id="Path_486-2" data-name="Path 486" d="M637.193,98.26a3.256,3.256,0,0,0,1.825,1.462,2.935,2.935,0,0,0,2.48.1,3.257,3.257,0,0,0-1.822-1.462A2.949,2.949,0,0,0,637.193,98.26Z" transform="translate(-637.127 -97.227)" fill="#c91687" opacity="0.5" style="mix-blend-mode: multiply;isolation: isolate"/>
        </g>
        <g id="Group_128-2" data-name="Group 128" transform="translate(69.52 47.384)">
            <path id="Path_487-2" data-name="Path 487" d="M644.455,112.409a2.014,2.014,0,1,1,2.015-1.437A1.777,1.777,0,0,1,644.455,112.409Z" transform="translate(-643.454 -108.618)" fill="#c91687" opacity="0.5" style="mix-blend-mode: multiply;isolation: isolate"/>
            <path id="Path_488-2" data-name="Path 488" d="M644.923,108.634a2.037,2.037,0,0,0-1.364,1.449,1.953,1.953,0,0,0,.491,2.093,2.04,2.04,0,0,0,1.366-1.449A1.958,1.958,0,0,0,644.923,108.634Z" transform="translate(-643.454 -108.597)" fill="#c91687" opacity="0.5" style="mix-blend-mode: multiply;isolation: isolate"/>
        </g>
        <g id="Group_129-2" data-name="Group 129" transform="translate(23.706 18.376)">
            <path id="Path_489-2" data-name="Path 489" d="M631.062,96.444c.766.965-.255,3.053-2.281,4.667s-4.291,2.143-5.059,1.181.254-3.053,2.281-4.667S630.294,95.481,631.062,96.444Z" transform="translate(-623.468 -95.963)" fill="#c91687" opacity="0.5" style="mix-blend-mode: multiply;isolation: isolate"/>
            <path id="Path_490-2" data-name="Path 490" d="M623.975,102.126a6.247,6.247,0,0,0,4.16-1.639c1.648-1.313,2.632-2.939,2.528-4.018A6.231,6.231,0,0,0,626.5,98.1C624.855,99.418,623.872,101.046,623.975,102.126Z" transform="translate(-622.822 -95.339)" fill="#c91687" opacity="0.5" style="mix-blend-mode: multiply;isolation: isolate"/>
        </g>
        <path id="Path_491-2" data-name="Path 491" d="M642.826,118.412c.273.477-.19,1.252-1.032,1.731s-1.744.481-2.015,0,.19-1.252,1.032-1.731S642.555,117.935,642.826,118.412Z" transform="translate(-578.785 -49.038)" fill="#c91687" opacity="0.5" style="mix-blend-mode: multiply;isolation: isolate"/>
        <path id="Path_492-2" data-name="Path 492" d="M642.874,117.125c.165.289-.115.761-.626,1.052s-1.061.293-1.226,0,.115-.761.626-1.052S642.709,116.834,642.874,117.125Z" transform="translate(-577.139 -50.521)" fill="#c91687" opacity="0.5" style="mix-blend-mode: multiply;isolation: isolate"/>
        <g id="Group_130-2" data-name="Group 130" transform="translate(24.859 58.395)">
            <path id="Path_493-2" data-name="Path 493" d="M626.174,116.985c-.546.275-1.382-.284-1.868-1.247s-.436-1.971.11-2.246,1.385.284,1.868,1.249S626.721,116.71,626.174,116.985Z" transform="translate(-623.971 -113.421)" fill="#c91687" opacity="0.5" style="mix-blend-mode: multiply;isolation: isolate"/>
            <path id="Path_494-2" data-name="Path 494" d="M626.5,117.147c-.33.167-.837-.172-1.13-.754s-.264-1.192.066-1.357.837.172,1.13.754S626.826,116.982,626.5,117.147Z" transform="translate(-622.43 -111.39)" fill="#c91687" opacity="0.5" style="mix-blend-mode: multiply;isolation: isolate"/>
        </g>
        <path id="Path_495-2" data-name="Path 495" d="M622.062,110.878c-.3.037-.594-.362-.658-.889s.128-.986.429-1.022.591.364.655.892S622.36,110.844,622.062,110.878Z" transform="translate(-602.444 -60.787)" fill="#c91687" opacity="0.5" style="mix-blend-mode: multiply;isolation: isolate"/>
        <path id="Path_496-2" data-name="Path 496" d="M646.734,107.5c-.435.053-.864-.527-.956-1.3s.186-1.435.621-1.488.864.53.956,1.3S647.169,107.447,646.734,107.5Z" transform="translate(-570.955 -66.28)" fill="#c91687" opacity="0.5" style="mix-blend-mode: multiply;isolation: isolate"/>
        <path id="Path_497-2" data-name="Path 497" d="M646.322,108.126c-.284.034-.564-.346-.623-.848s.121-.94.406-.974.566.346.626.85S646.609,108.091,646.322,108.126Z" transform="translate(-571.05 -64.228)" fill="#c91687" opacity="0.5" style="mix-blend-mode: multiply;isolation: isolate"/>
        <g id="Group_131-2" data-name="Group 131" transform="translate(28.034 69.307)">
            <path id="Path_498-2" data-name="Path 498" d="M628.841,121.91c-.342.429-1.233.289-1.992-.314s-1.093-1.44-.752-1.87,1.233-.287,1.99.316S629.183,121.481,628.841,121.91Z" transform="translate(-624.571 -116.507)" fill="#c91687" opacity="0.5" style="mix-blend-mode: multiply;isolation: isolate"/>
            <path id="Path_499-2" data-name="Path 499" d="M629.6,121.612c-.209.261-.75.174-1.213-.193s-.665-.876-.456-1.137.75-.174,1.21.193S629.808,121.35,629.6,121.612Z" transform="translate(-622.132 -115.663)" fill="#c91687" opacity="0.5" style="mix-blend-mode: multiply;isolation: isolate"/>
            <path id="Path_500-2" data-name="Path 500" d="M627.107,119.663c-.208.259-.752.174-1.213-.193s-.665-.876-.456-1.137.749-.177,1.21.19S627.313,119.4,627.107,119.663Z" transform="translate(-625.356 -118.182)" fill="#c91687" opacity="0.5" style="mix-blend-mode: multiply;isolation: isolate"/>
        </g>
        <path id="Path_501-2" data-name="Path 501" d="M629.08,97.785c-.186-.516.4-1.2,1.313-1.529s1.8-.174,1.985.342-.4,1.2-1.313,1.529S629.266,98.3,629.08,97.785Zm-.937,2.645c.555-.2.912-.617.8-.931s-.653-.406-1.208-.206-.912.614-.8.931S627.59,100.63,628.143,100.43Zm6.808-2.519c.553-.2.91-.617.8-.931s-.653-.408-1.208-.206-.912.614-.8.928S634.4,98.111,634.951,97.911Zm23.881,6.042c.156-.527,1.036-.729,1.964-.454s1.554.924,1.4,1.451-1.034.729-1.964.454S658.676,104.479,658.832,103.954Zm4.658,3.576c.564.167,1.1.044,1.194-.275s-.287-.715-.853-.883-1.1-.046-1.194.275S662.923,107.362,663.489,107.53Z" transform="translate(-595.309 -77.432)" fill="#c91687" opacity="0.5" style="mix-blend-mode: screen;isolation: isolate"/>
    </g>
    <path id="Path_19" data-name="Path 19" d="M593.955,49.588s-3-6.934-4.752-8.683-8.683-4.75-8.683-4.75,6.934-3,8.683-4.752,4.752-8.683,4.752-8.683,3,6.934,4.75,8.683,8.683,4.752,8.683,4.752-6.934,3-8.683,4.75S593.955,49.588,593.955,49.588Z" transform="translate(953.128 497.53)" fill="url(#radial-gradient-82)" style="mix-blend-mode: screen;isolation: isolate"/>
    <path id="Path_21" data-name="Path 21" d="M606.817,38.776a4.5,4.5,0,1,0,4.5,4.5A4.5,4.5,0,0,0,606.817,38.776Z" transform="translate(981.302 518.279)" opacity="0.5" fill="url(#radial-gradient-83)" style="mix-blend-mode: screen;isolation: isolate"/>
    <path id="Path_33" data-name="Path 33" d="M429.843,49.738a15.255,15.255,0,0,1,2.359-2.3,15.17,15.17,0,0,1,3.23-.667,15.251,15.251,0,0,1-2.3-2.359,15.172,15.172,0,0,1-.667-3.23,15.254,15.254,0,0,1-2.359,2.3,15.169,15.169,0,0,1-3.23.667,15.189,15.189,0,0,1,2.3,2.361A15.132,15.132,0,0,1,429.843,49.738Z" transform="translate(1261.574 327.384)" opacity="0.5" fill="url(#radial-gradient-84)" style="mix-blend-mode: screen;isolation: isolate"/>
    <path id="Path_41" data-name="Path 41" d="M412.395,31.224a1.887,1.887,0,1,1,1.135,2.416A1.886,1.886,0,0,1,412.395,31.224ZM386.458,58.654a3.774,3.774,0,1,0-2.272-4.832A3.776,3.776,0,0,0,386.458,58.654Zm72.791-31.269a3.774,3.774,0,1,0-2.272-4.83A3.772,3.772,0,0,0,459.249,27.385Z" transform="translate(1206.123 300.092)" fill="url(#radial-gradient-85)" style="mix-blend-mode: screen;isolation: isolate"/>
    <g id="Group_205" data-name="Group 205" transform="translate(0 261.627)">
        <text id="_" data-name="
" transform="translate(0 78)" fill="#fff" font-size="52" font-family="SegoeUI-Bold, Segoe UI" font-weight="700" letter-spacing="0.025em">
            <tspan x="0" y="0"></tspan>
            <tspan font-family="Gotham-Bold, Gotham">
                <tspan x="0" y="62"></tspan>
            </tspan>
        </text>
    </g>
</svg>