<svg xmlns="http://www.w3.org/2000/svg" width="38.613" height="33" viewBox="0 0 38.613 33">
    <g id="people" transform="translate(-2 -3.94)">
        <ellipse id="Ellipse_18" data-name="Ellipse 18" cx="3.792" cy="3.944" rx="3.792" ry="3.944" transform="translate(17.514 3.94)" fill="#fff"/>
        <path id="Path_526" data-name="Path 526" d="M23.623,11.229H18.99a4.647,4.647,0,0,0-4.84,4.44v6a3.434,3.434,0,0,0,2.3,3.213v8a2.758,2.758,0,0,0,2.537,2.855h4.634a2.758,2.758,0,0,0,2.537-2.855v-8a3.434,3.434,0,0,0,2.3-3.186V15.67a4.647,4.647,0,0,0-4.84-4.44Zm-16.107.5a2.3,2.3,0,1,0-2.22-2.3A2.262,2.262,0,0,0,7.516,11.726Zm1.655,1.1H5.861A3.7,3.7,0,0,0,2,16.318v4.137a2.758,2.758,0,0,0,2.069,2.634v5.254a2.275,2.275,0,0,0,2.069,2.413H9.019a2.275,2.275,0,0,0,2.1-2.455v-5.3a2.758,2.758,0,0,0,1.917-2.593V16.276A3.7,3.7,0,0,0,9.171,12.829Zm25.926-1.1a2.3,2.3,0,1,0-2.22-2.3A2.262,2.262,0,0,0,35.1,11.726Zm1.655,1.1h-3.31a3.7,3.7,0,0,0-3.861,3.489v4.137a2.758,2.758,0,0,0,2.069,2.634v5.254a2.275,2.275,0,0,0,2.069,2.413h2.855a2.275,2.275,0,0,0,2.1-2.455v-5.3a2.758,2.758,0,0,0,1.944-2.593V16.276A3.7,3.7,0,0,0,36.751,12.829Z" transform="translate(0 1.206)" fill="#fff"/>
    </g>
</svg>