<svg xmlns="http://www.w3.org/2000/svg" xmlns:xlink="http://www.w3.org/1999/xlink" width="90" height="101" viewBox="0 0 90 101">
    <defs>
        <filter id="Polygon_4" x="0" y="0" width="90" height="101" filterUnits="userSpaceOnUse">
            <feOffset dy="3" input="SourceAlpha"/>
            <feGaussianBlur stdDeviation="3" result="blur"/>
            <feFlood flood-opacity="0.161"/>
            <feComposite operator="in" in2="blur"/>
            <feComposite in="SourceGraphic"/>
        </filter>
    </defs>
    <g transform="matrix(1, 0, 0, 1, 0, 0)" filter="url(#Polygon_4)">
        <g id="Polygon_4-2" data-name="Polygon 4" transform="translate(81 6) rotate(90)" fill="#ec6418">
            <path d="M 67.42451477050781 71.5 L 15.57548427581787 71.5 C 12.5038537979126 71.5 9.75257396697998 69.91221618652344 8.215793609619141 67.25265502929688 C 6.679023742675781 64.59310150146484 6.677303791046143 61.41652297973633 8.211194038391113 58.75531387329102 L 34.13572311401367 13.77783298492432 C 35.67153549194336 11.1132926940918 38.42453384399414 9.522522926330566 41.50000381469727 9.522522926330566 C 44.57546234130859 9.522522926330566 47.32846450805664 11.1132926940918 48.86428451538086 13.77783298492432 L 74.78879547119141 58.75531387329102 C 76.32269287109375 61.41652297973633 76.32098388671875 64.59309387207031 74.78421020507812 67.25265502929688 C 73.2474365234375 69.91220092773438 70.49615478515625 71.5 67.42451477050781 71.5 Z" stroke="none"/>
            <path d="M 41.50000381469727 10.02251434326172 C 38.60544204711914 10.02251434326172 36.01438522338867 11.51971435546875 34.56892395019531 14.02751922607422 L 8.644393920898438 59.0049934387207 C 7.200721740722656 61.50967407226562 7.202346801757812 64.4993896484375 8.648727416992188 67.00250244140625 C 10.0950927734375 69.505615234375 12.68453216552734 71 15.57547760009766 71 L 67.42451477050781 71 C 70.31546020507812 71 72.9049072265625 69.505615234375 74.35127258300781 67.00250244140625 C 75.79765319824219 64.4993896484375 75.79926300048828 61.50967407226562 74.3555908203125 59.0050048828125 L 48.43108367919922 14.02751922607422 C 46.98561477661133 11.51971435546875 44.39455413818359 10.02251434326172 41.50000381469727 10.02251434326172 M 41.5 9.022514343261719 C 44.5330696105957 9.022514343261719 47.56614303588867 10.52439117431641 49.2974739074707 13.52814483642578 L 75.22198486328125 58.50562286376953 C 78.68032073974609 64.50562286376953 74.34983062744141 72 67.42451477050781 72 L 15.57547760009766 72 C 8.650161743164062 72 4.319671630859375 64.50562286376953 7.778007507324219 58.50562286376953 L 33.70253372192383 13.52814483642578 C 35.43385696411133 10.52439117431641 38.4669303894043 9.022514343261719 41.5 9.022514343261719 Z" stroke="none" fill="#707070"/>
        </g>
    </g>
</svg>