<svg xmlns="http://www.w3.org/2000/svg" width="42" height="45" viewBox="0 0 42 45">
    <g id="Portfolio-Resume-Application-Personal_Profile-Curriculum_Vitae" data-name="Portfolio-Resume-Application-Personal Profile-Curriculum Vitae" transform="translate(-4 -2)">
        <path id="Path_527" data-name="Path 527" d="M37,43.25a2.25,2.25,0,0,1-2.25,2.25h-27A2.25,2.25,0,0,1,5.5,43.25V5.75A2.25,2.25,0,0,1,7.75,3.5H31V7.25A2.25,2.25,0,0,0,33.25,9.5H37v.75h1.5V8.75a.75.75,0,0,0-.22-.53l-6-6A.75.75,0,0,0,31.75,2h-24A3.755,3.755,0,0,0,4,5.75v37.5A3.754,3.754,0,0,0,7.75,47h27a3.755,3.755,0,0,0,3.75-3.75V23H37Zm-4.5-36V4.561L35.939,8H33.25A.75.75,0,0,1,32.5,7.25Z" fill="#fff"/>
        <path id="Path_528" data-name="Path 528" d="M27.67,18.56a2.982,2.982,0,0,0,.83-2.06V15a3,3,0,1,0-6,0v1.5a2.982,2.982,0,0,0,.83,2.06A4.5,4.5,0,0,0,21,22.5v.75a.75.75,0,0,0,.75.75h7.5a.75.75,0,0,0,.75-.75V22.5A4.5,4.5,0,0,0,27.67,18.56Zm-2.17.94a2.964,2.964,0,0,1,1.132.225,1.485,1.485,0,0,1-2.265,0A2.965,2.965,0,0,1,25.5,19.5Zm0-6A1.5,1.5,0,0,1,27,15h-.128a.75.75,0,0,1-.531-.22l-.31-.311a.75.75,0,0,0-1.061,0l-.31.311a.75.75,0,0,1-.531.22H24A1.5,1.5,0,0,1,25.5,13.5Zm-1.5,3h.128a2.233,2.233,0,0,0,1.372-.466,2.234,2.234,0,0,0,1.372.466H27a1.5,1.5,0,0,1-3,0Zm-1.5,6a2.969,2.969,0,0,1,.668-1.863,3,3,0,0,0,4.665,0A2.969,2.969,0,0,1,28.5,22.5Z" transform="translate(-4.25 -2.5)" fill="#fff"/>
        <path id="Path_529" data-name="Path 529" d="M52.25,14h-12a1.5,1.5,0,0,0-1.5,1.5v1.742l-3.279,1.311a.75.75,0,0,0,0,1.393l3.279,1.311V23a1.5,1.5,0,0,0,1.5,1.5h12a1.5,1.5,0,0,0,1.5-1.5V15.5A1.5,1.5,0,0,0,52.25,14Zm0,9h-12V20.75a.75.75,0,0,0-.471-.7l-2.01-.8,2.01-.8a.75.75,0,0,0,.471-.7V15.5h12Z" transform="translate(-7.75 -3)" fill="#fff"/>
        <rect id="Rectangle_54" data-name="Rectangle 54" width="9.187" height="1.312" transform="translate(34.187 14)" fill="#fff"/>
        <rect id="Rectangle_55" data-name="Rectangle 55" width="9.187" height="1.312" transform="translate(34.187 16.625)" fill="#fff"/>
        <rect id="Rectangle_56" data-name="Rectangle 56" width="3.937" height="1.312" transform="translate(10.562 25.813)" fill="#fff"/>
        <rect id="Rectangle_57" data-name="Rectangle 57" width="17.062" height="1.312" transform="translate(15.812 25.813)" fill="#fff"/>
        <rect id="Rectangle_58" data-name="Rectangle 58" width="17.062" height="2.625" transform="translate(15.812 28.438)" fill="#fff"/>
        <rect id="Rectangle_59" data-name="Rectangle 59" width="3.937" height="1.312" transform="translate(10.562 32.375)" fill="#fff"/>
        <rect id="Rectangle_60" data-name="Rectangle 60" width="17.062" height="1.312" transform="translate(15.812 32.375)" fill="#fff"/>
        <rect id="Rectangle_61" data-name="Rectangle 61" width="17.062" height="1.312" transform="translate(15.812 35)" fill="#fff"/>
        <rect id="Rectangle_62" data-name="Rectangle 62" width="3.937" height="1.312" transform="translate(10.562 37.625)" fill="#fff"/>
        <rect id="Rectangle_63" data-name="Rectangle 63" width="17.062" height="1.312" transform="translate(15.812 37.625)" fill="#fff"/>
        <rect id="Rectangle_64" data-name="Rectangle 64" width="17.062" height="1.312" transform="translate(15.812 41.563)" fill="#fff"/>
    </g>
</svg>