<svg xmlns="http://www.w3.org/2000/svg" width="38.393" height="33.427" viewBox="0 0 38.393 33.427">
    <path id="Path_537" data-name="Path 537" d="M46.4,31.393A13.155,13.155,0,0,1,33.263,44.539H9.609a1.6,1.6,0,0,1,0-3.2H33.263a9.942,9.942,0,1,0,0-19.883H14.076l5.237,4.306a1.6,1.6,0,1,1-2.032,2.472L8.593,21.091c-.019-.016-.034-.035-.052-.052a1.525,1.525,0,0,1-.118-.12l-.013-.012c-.011-.013-.026-.022-.037-.035v0c-.017-.02-.029-.043-.044-.064a1.407,1.407,0,0,1-.087-.13c-.006-.01-.015-.02-.021-.031s-.02-.026-.027-.041-.017-.043-.026-.064c-.022-.046-.04-.094-.058-.142L8.1,20.379c-.016-.046-.03-.092-.042-.138a1.388,1.388,0,0,1-.027-.144c0-.03-.014-.058-.017-.087s0-.057,0-.085-.007-.046-.007-.07.006-.046.007-.07,0-.056,0-.084a.607.607,0,0,1,.017-.088c.007-.049.016-.1.027-.144A1.382,1.382,0,0,1,8.1,19.33l.006-.014c.018-.049.036-.1.058-.142.01-.021.015-.043.026-.064s.019-.026.027-.041.014-.021.021-.031a1.408,1.408,0,0,1,.086-.13c.015-.021.027-.044.044-.064v0c.016-.02.036-.034.053-.053a1.423,1.423,0,0,1,.115-.115c.018-.017.033-.036.052-.052l.008-.007h0l8.684-7.136a1.6,1.6,0,1,1,2.032,2.472l-5.237,4.306H33.267A13.153,13.153,0,0,1,46.4,31.393Z" transform="translate(-8.009 -11.112)" fill="#ffce00"/>
</svg>