<svg xmlns="http://www.w3.org/2000/svg" xmlns:xlink="http://www.w3.org/1999/xlink" width="51" height="51" viewBox="0 0 51 51">
    <defs>
        <clipPath id="clip-path">
            <rect id="Rectangle_39" data-name="Rectangle 39" width="51" height="51" transform="translate(200 792)" fill="#fff" stroke="#707070" stroke-width="1"/>
        </clipPath>
    </defs>
    <g id="Mask_Group_8" data-name="Mask Group 8" transform="translate(-200 -792)" clip-path="url(#clip-path)">
        <g id="Frame" transform="translate(196.357 788.357)">
            <path id="Path_519" data-name="Path 519" d="M25.16,20.493l3.005-5.687a1.778,1.778,0,0,1,.683-.7,1.966,1.966,0,0,1,1.956,0,1.778,1.778,0,0,1,.683.7l3.005,5.687,6.724.91a1.7,1.7,0,0,1,1.027,2.95L37.38,28.778l1.147,6.247a1.622,1.622,0,0,1-.108.945,1.753,1.753,0,0,1-.627.749,1.938,1.938,0,0,1-.957.326,1.963,1.963,0,0,1-1-.195L29.826,33.9l-6.011,2.95a1.964,1.964,0,0,1-1,.2,1.938,1.938,0,0,1-.957-.325,1.752,1.752,0,0,1-.628-.749,1.622,1.622,0,0,1-.109-.946l1.148-6.247-4.863-4.427a1.7,1.7,0,0,1-.506-.824,1.618,1.618,0,0,1,.037-.949,1.728,1.728,0,0,1,.568-.788,1.917,1.917,0,0,1,.929-.389l6.721-.91Zm2.891,2.346a1.766,1.766,0,0,1-.572.632,1.928,1.928,0,0,1-.821.312l-3.973.54,2.874,2.614a1.662,1.662,0,0,1,.533,1.53l-.68,3.692,3.552-1.744a1.97,1.97,0,0,1,1.727,0l3.552,1.744-.68-3.692a1.618,1.618,0,0,1,.064-.826,1.715,1.715,0,0,1,.469-.7l2.874-2.614L33,23.783a1.927,1.927,0,0,1-.821-.312,1.764,1.764,0,0,1-.572-.632l-1.779-3.361L28.05,22.837Z" fill="#fff"/>
            <path id="Path_520" data-name="Path 520" d="M13.909,3.643A6.757,6.757,0,0,0,9.226,5.51a6.256,6.256,0,0,0-1.94,4.508v38.25a6.256,6.256,0,0,0,1.94,4.508,6.756,6.756,0,0,0,4.683,1.867h35.1a2.027,2.027,0,0,0,1.405-.56,1.862,1.862,0,0,0,0-2.7,2.027,2.027,0,0,0-1.405-.56h-35.1a2.7,2.7,0,0,1-1.873-.747,2.5,2.5,0,0,1-.776-1.8H49.013a2.027,2.027,0,0,0,1.405-.56A1.877,1.877,0,0,0,51,46.355V10.018a6.169,6.169,0,0,0-.5-2.44A6.363,6.363,0,0,0,49.06,5.51a6.644,6.644,0,0,0-2.149-1.382,6.848,6.848,0,0,0-2.535-.485Zm33.117,40.8H11.26V10.018a2.5,2.5,0,0,1,.776-1.8,2.7,2.7,0,0,1,1.873-.747H44.377a2.7,2.7,0,0,1,1.874.747,2.5,2.5,0,0,1,.776,1.8Z" fill="#fff"/>
        </g>
    </g>
</svg>